<svg version="1.1" xmlns="http://www.w3.org/2000/svg" style="display: block;" viewBox="0 0 1352 1620" width="338" height="405" preserveAspectRatio="none">
<defs>
	<linearGradient id="Gradient1" gradientUnits="userSpaceOnUse" x1="714.044" y1="456.966" x2="686.696" y2="474.893">
		<stop class="stop0" offset="0" stop-opacity="1" stop-color="rgb(65,120,157)"/>
		<stop class="stop1" offset="1" stop-opacity="1" stop-color="rgb(51,96,129)"/>
	</linearGradient>
	<linearGradient id="Gradient2" gradientUnits="userSpaceOnUse" x1="729.893" y1="500.534" x2="723.354" y2="423.377">
		<stop class="stop0" offset="0" stop-opacity="1" stop-color="rgb(14,27,63)"/>
		<stop class="stop1" offset="1" stop-opacity="1" stop-color="rgb(29,74,110)"/>
	</linearGradient>
	<linearGradient id="Gradient3" gradientUnits="userSpaceOnUse" x1="798.803" y1="341.095" x2="743.809" y2="333.391">
		<stop class="stop0" offset="0" stop-opacity="1" stop-color="rgb(45,137,157)"/>
		<stop class="stop1" offset="1" stop-opacity="1" stop-color="rgb(88,225,224)"/>
	</linearGradient>
	<linearGradient id="Gradient4" gradientUnits="userSpaceOnUse" x1="213.689" y1="940.223" x2="298.977" y2="899.957">
		<stop class="stop0" offset="0" stop-opacity="1" stop-color="rgb(189,36,4)"/>
		<stop class="stop1" offset="1" stop-opacity="1" stop-color="rgb(83,33,26)"/>
	</linearGradient>
	<linearGradient id="Gradient5" gradientUnits="userSpaceOnUse" x1="618.728" y1="504.685" x2="649.896" y2="391.039">
		<stop class="stop0" offset="0" stop-opacity="1" stop-color="rgb(17,29,63)"/>
		<stop class="stop1" offset="1" stop-opacity="1" stop-color="rgb(27,84,117)"/>
	</linearGradient>
	<linearGradient id="Gradient6" gradientUnits="userSpaceOnUse" x1="1162.18" y1="541.304" x2="1046.78" y2="535.22">
		<stop class="stop0" offset="0" stop-opacity="1" stop-color="rgb(6,108,130)"/>
		<stop class="stop1" offset="1" stop-opacity="1" stop-color="rgb(0,83,108)"/>
	</linearGradient>
	<linearGradient id="Gradient7" gradientUnits="userSpaceOnUse" x1="471.523" y1="500.195" x2="484.563" y2="491.42">
		<stop class="stop0" offset="0" stop-opacity="1" stop-color="rgb(73,180,207)"/>
		<stop class="stop1" offset="1" stop-opacity="1" stop-color="rgb(82,196,195)"/>
	</linearGradient>
	<linearGradient id="Gradient8" gradientUnits="userSpaceOnUse" x1="698.356" y1="1274.66" x2="686.351" y2="451.78">
		<stop class="stop0" offset="0" stop-opacity="1" stop-color="rgb(0,77,101)"/>
		<stop class="stop1" offset="1" stop-opacity="1" stop-color="rgb(0,145,162)"/>
	</linearGradient>
	<linearGradient id="Gradient9" gradientUnits="userSpaceOnUse" x1="1137.03" y1="1464.08" x2="900.332" y2="584.561">
		<stop class="stop0" offset="0" stop-opacity="1" stop-color="rgb(1,48,73)"/>
		<stop class="stop1" offset="1" stop-opacity="1" stop-color="rgb(5,123,149)"/>
	</linearGradient>
	<linearGradient id="Gradient10" gradientUnits="userSpaceOnUse" x1="612.722" y1="822.725" x2="1283.36" y2="895.664">
		<stop class="stop0" offset="0" stop-opacity="1" stop-color="rgb(48,33,35)"/>
		<stop class="stop1" offset="1" stop-opacity="1" stop-color="rgb(6,48,68)"/>
	</linearGradient>
	<linearGradient id="Gradient11" gradientUnits="userSpaceOnUse" x1="984.879" y1="984.539" x2="-5.98794" y2="391.152">
		<stop class="stop0" offset="0" stop-opacity="1" stop-color="rgb(118,36,14)"/>
		<stop class="stop1" offset="1" stop-opacity="1" stop-color="rgb(227,74,0)"/>
	</linearGradient>
</defs>
<path transform="translate(0,0)" fill="rgb(7,28,38)" d="M 673.658 8.87876 C 681.214 13.3655 687.479 17.5668 694.042 23.4054 C 712.614 36.9564 729.787 48.7117 748.774 61.5289 C 772.984 76.8286 795.303 90.4845 820.473 104.244 C 826.331 107.446 856.482 121.921 859.26 124.277 C 878.572 132.466 897.949 143.486 917.407 151.639 C 1009.24 190.12 1101.87 221.783 1199.32 242.985 C 1214 246.177 1333.65 268.498 1336.48 271.63 C 1339.92 282.517 1338.36 379.321 1337.02 396.376 C 1338.1 414.67 1336.53 444.694 1336.24 464.134 C 1335.75 499.585 1335.91 535.042 1336.73 570.487 C 1340.68 767.083 1354.58 880.246 1251.48 1060.06 C 1237.95 1083.44 1223.31 1106.15 1207.6 1128.13 C 1195.26 1145.06 1181.54 1161.22 1170.07 1179.02 C 1166.4 1184.72 1155.17 1191.7 1150.51 1197.93 L 1151.06 1198.23 L 1153.67 1196.8 C 1153.33 1200.17 1139.76 1214.84 1137.05 1218.04 C 1099.65 1262.22 1059.59 1304.71 1015.64 1342.47 C 1005.97 1350.78 997.084 1360.5 986.123 1367.23 C 971.483 1383.23 961.633 1390.05 946.055 1403.96 C 905.809 1439.92 863.283 1471.58 820.645 1504.41 C 805.329 1516.2 782.698 1532 768.633 1543.7 C 755.693 1553.9 742.328 1562.99 729.094 1572.76 C 713.9 1583.97 699.075 1595.95 683.01 1605.92 C 679.384 1608.17 677.163 1608.51 673.053 1607.43 C 650.725 1596.56 610.966 1562.25 589.288 1546.53 C 580.859 1540.42 555.88 1522.61 548.921 1516.26 C 513.102 1490.21 478.577 1461.58 444.199 1433.67 C 331.499 1342.17 224.326 1241.48 137.611 1124.55 C 63.2353 1024.26 16.5889 911.993 9.96479 786.514 C 8.19284 752.949 8.93748 718.085 8.89991 684.346 L 8.83133 499.89 L 8.94266 346.072 C 8.91815 331.298 7.84702 283.134 9.67936 271.506 C 12.5765 269.697 77.8485 258.694 85.9842 257.176 C 295.739 218.033 507.565 147.296 673.658 8.87876 z"/>
<path transform="translate(0,0)" fill="url(#Gradient11)" d="M 673.658 8.87876 C 681.214 13.3655 687.479 17.5668 694.042 23.4054 C 693.316 26.2211 695.815 30.0057 690.228 32.311 C 679.17 36.8741 676.367 33.075 673.89 46.6885 L 676.914 49.4423 C 677.657 59.4307 680.542 107.31 683.185 113.739 C 672.368 113.021 628.818 143.144 616.503 150.551 C 581.145 172.111 544.846 192.088 507.714 210.422 C 420.486 253.379 321.191 287.434 227.483 313.16 C 199.507 320.678 171.478 327.998 143.398 335.12 C 131.112 338.193 107.023 343.308 96.0266 347.554 C 94.1578 362.924 95.0427 392.765 95.0862 409.376 L 94.8627 510.343 L 92.9967 649.196 C 92.1592 704.891 91.5119 751.49 96.9184 807.158 C 98.8898 827.536 102.222 847.758 106.893 867.691 C 108.564 874.938 113.731 893.39 114.559 899.013 C 155.817 1031.29 244.515 1140.71 342.212 1235.82 C 435.649 1326.78 538.113 1407.71 645.763 1481.01 C 656.372 1488.24 666.608 1496.2 677.465 1503.04 L 679.62 1506.49 L 681.788 1505.4 C 684.868 1510.55 683.47 1515.77 682.554 1521.64 C 676.572 1525.53 667.063 1530.48 665.647 1537.93 C 665.594 1538.21 664.27 1551.43 664.267 1551.41 C 666.63 1558.82 664.764 1582.95 665.466 1592.79 C 676.434 1591.79 679.529 1591.46 690.483 1594 C 689.385 1599.35 677.945 1605.58 673.053 1607.43 C 650.725 1596.56 610.966 1562.25 589.288 1546.53 C 580.859 1540.42 555.88 1522.61 548.921 1516.26 C 513.102 1490.21 478.577 1461.58 444.199 1433.67 C 331.499 1342.17 224.326 1241.48 137.611 1124.55 C 63.2353 1024.26 16.5889 911.993 9.96479 786.514 C 8.19284 752.949 8.93748 718.085 8.89991 684.346 L 8.83133 499.89 L 8.94266 346.072 C 8.91815 331.298 7.84702 283.134 9.67936 271.506 C 12.5765 269.697 77.8485 258.694 85.9842 257.176 C 295.739 218.033 507.565 147.296 673.658 8.87876 z"/>
<path transform="translate(0,0)" fill="rgb(224,78,0)" d="M 548.921 1516.26 C 513.102 1490.21 478.577 1461.58 444.199 1433.67 C 331.499 1342.17 224.326 1241.48 137.611 1124.55 C 63.2353 1024.26 16.5889 911.993 9.96479 786.514 C 8.19284 752.949 8.93748 718.085 8.89991 684.346 L 8.83133 499.89 L 8.94266 346.072 C 8.91815 331.298 7.84702 283.134 9.67936 271.506 L 9.78421 272.691 C 10.9546 286.627 10.3648 308.654 10.3788 323.355 L 10.4354 413.864 C 10.447 430.444 9.97279 450.248 10.8755 466.605 C 11.6307 457.603 11.2338 449.104 11.4711 440.174 C 12.6766 394.816 9.62867 347.745 11.8162 302.535 C 12.3115 305.113 11.9296 305.79 13.5347 306.91 C 18.3726 310.288 42.9081 313.056 43.5648 319.009 C 45.903 340.203 44.8286 366.662 44.8191 388.191 C 44.6566 439.158 44.7908 490.124 45.2219 541.089 C 45.4078 533.598 45.4116 523.736 46.0396 516.38 C 48.5227 524.111 47.2257 548.066 47.404 557.593 C 49.112 648.878 41.9299 742.111 52.5795 832.858 C 62.0201 913.303 90.3141 994.805 136.633 1061.36 C 178.722 1121.43 226.258 1177.78 276.433 1231.24 C 306.722 1263.52 340.776 1292.94 373.374 1322.79 C 428.708 1373.3 486.08 1422.44 547.233 1465.8 C 555.415 1471.6 608.448 1512.72 613.766 1513.54 C 616.255 1512.84 618.352 1513.72 621.515 1513.41 C 638.628 1511.72 660.876 1521.23 674.399 1505.27 L 679.62 1506.49 L 681.788 1505.4 C 684.868 1510.55 683.47 1515.77 682.554 1521.64 C 676.572 1525.53 667.063 1530.48 665.647 1537.93 C 665.594 1538.21 664.27 1551.43 664.267 1551.41 C 666.63 1558.82 664.764 1582.95 665.466 1592.79 C 676.434 1591.79 679.529 1591.46 690.483 1594 C 689.385 1599.35 677.945 1605.58 673.053 1607.43 C 650.725 1596.56 610.966 1562.25 589.288 1546.53 C 580.859 1540.42 555.88 1522.61 548.921 1516.26 z"/>
<path transform="translate(0,0)" fill="rgb(95,35,23)" d="M 674.399 1505.27 L 679.62 1506.49 L 681.788 1505.4 C 684.868 1510.55 683.47 1515.77 682.554 1521.64 C 676.572 1525.53 667.063 1530.48 665.647 1537.93 C 665.594 1538.21 664.27 1551.43 664.267 1551.41 C 666.63 1558.82 664.764 1582.95 665.466 1592.79 C 676.434 1591.79 679.529 1591.46 690.483 1594 C 689.385 1599.35 677.945 1605.58 673.053 1607.43 C 650.725 1596.56 610.966 1562.25 589.288 1546.53 C 580.859 1540.42 555.88 1522.61 548.921 1516.26 C 556.892 1518.38 565.402 1527.35 571.027 1530.04 C 584.453 1536.45 652.191 1591.5 661.402 1591.84 C 662.797 1583.23 662.94 1561.28 663.29 1551.62 C 661.84 1544.43 622.673 1520.84 613.766 1513.54 C 616.255 1512.84 618.352 1513.72 621.515 1513.41 C 638.628 1511.72 660.876 1521.23 674.399 1505.27 z"/>
<path transform="translate(0,0)" fill="rgb(243,158,35)" d="M 673.658 8.87876 C 681.214 13.3655 687.479 17.5668 694.042 23.4054 C 693.316 26.2211 695.815 30.0057 690.228 32.311 C 679.17 36.8741 676.367 33.075 673.89 46.6885 C 636.505 78.264 594.519 103.799 552.051 127.93 C 458.611 181.528 359.078 223.72 255.585 253.603 C 223.179 262.789 185.718 271.285 152.724 278.316 C 121.724 284.922 77.4829 295.527 46.4421 298.243 C 44.8983 318.42 45.5167 342.647 46.091 363.063 C 47.5123 413.589 43.956 466.091 46.0396 516.38 C 45.4116 523.736 45.4078 533.598 45.2219 541.089 C 44.7908 490.124 44.6566 439.158 44.8191 388.191 C 44.8286 366.662 45.903 340.203 43.5648 319.009 C 42.9081 313.056 18.3726 310.288 13.5347 306.91 C 11.9296 305.79 12.3115 305.113 11.8162 302.535 C 9.62867 347.745 12.6766 394.816 11.4711 440.174 C 11.2338 449.104 11.6307 457.603 10.8755 466.605 C 9.97279 450.248 10.447 430.444 10.4354 413.864 L 10.3788 323.355 C 10.3648 308.654 10.9546 286.627 9.78421 272.691 L 9.67936 271.506 C 12.5765 269.697 77.8485 258.694 85.9842 257.176 C 295.739 218.033 507.565 147.296 673.658 8.87876 z"/>
<path transform="translate(0,0)" fill="rgb(243,158,35)" d="M 114.559 899.013 C 155.817 1031.29 244.515 1140.71 342.212 1235.82 C 435.649 1326.78 538.113 1407.71 645.763 1481.01 C 656.372 1488.24 666.608 1496.2 677.465 1503.04 L 679.62 1506.49 L 674.399 1505.27 C 661.834 1498.91 647.611 1487.79 635.716 1479.6 C 506.38 1390.6 380.815 1289.29 274.83 1173.19 C 216.061 1108.81 165.864 1038.34 131.454 958.463 C 128.265 951.06 116.54 923.501 116.823 916.751 C 117.878 921.135 121.39 930.691 123.549 934.525 L 124.9 934.047 C 121.727 925.559 114.014 907.228 114.559 899.013 z"/>
<path transform="translate(0,0)" fill="url(#Gradient10)" d="M 694.042 23.4054 C 712.614 36.9564 729.787 48.7117 748.774 61.5289 C 772.984 76.8286 795.303 90.4845 820.473 104.244 C 826.331 107.446 856.482 121.921 859.26 124.277 C 878.572 132.466 897.949 143.486 917.407 151.639 C 1009.24 190.12 1101.87 221.783 1199.32 242.985 C 1214 246.177 1333.65 268.498 1336.48 271.63 C 1339.92 282.517 1338.36 379.321 1337.02 396.376 C 1338.1 414.67 1336.53 444.694 1336.24 464.134 C 1335.75 499.585 1335.91 535.042 1336.73 570.487 C 1340.68 767.083 1354.58 880.246 1251.48 1060.06 C 1237.95 1083.44 1223.31 1106.15 1207.6 1128.13 C 1195.26 1145.06 1181.54 1161.22 1170.07 1179.02 C 1166.4 1184.72 1155.17 1191.7 1150.51 1197.93 L 1151.06 1198.23 L 1153.67 1196.8 C 1153.33 1200.17 1139.76 1214.84 1137.05 1218.04 C 1099.65 1262.22 1059.59 1304.71 1015.64 1342.47 C 1005.97 1350.78 997.084 1360.5 986.123 1367.23 C 971.483 1383.23 961.633 1390.05 946.055 1403.96 C 905.809 1439.92 863.283 1471.58 820.645 1504.41 C 805.329 1516.2 782.698 1532 768.633 1543.7 C 755.693 1553.9 742.328 1562.99 729.094 1572.76 C 713.9 1583.97 699.075 1595.95 683.01 1605.92 C 679.384 1608.17 677.163 1608.51 673.053 1607.43 C 677.945 1605.58 689.385 1599.35 690.483 1594 C 679.529 1591.46 676.434 1591.79 665.466 1592.79 C 664.764 1582.95 666.63 1558.82 664.267 1551.41 C 664.27 1551.43 665.594 1538.21 665.647 1537.93 C 667.063 1530.48 676.572 1525.53 682.554 1521.64 C 683.47 1515.77 684.868 1510.55 681.788 1505.4 C 685.921 1503.3 694.66 1496.99 698.846 1494.14 L 694.861 1492.27 C 698.433 1489.32 701.937 1486.88 705.654 1484.16 C 741.686 1457.79 779.468 1431.15 814.821 1404.04 C 857.685 1371.18 899.423 1336.87 939.964 1301.19 C 1050.17 1205.2 1139.03 1113.27 1205.56 981.269 C 1208.51 972.84 1212.8 964.021 1216.33 955.669 C 1230.88 921.23 1239.22 886.421 1247.74 850.165 C 1247.28 846.144 1248.22 841.085 1248.99 837.1 C 1253.96 811.263 1255.12 786.831 1255.09 760.598 C 1254.16 673.45 1253.74 586.297 1253.82 499.144 C 1253.74 448.165 1255.52 390.581 1253.58 340.617 C 1247.63 338.394 1234.12 335.86 1227.58 334.53 C 1213.82 331.734 1200.91 328.96 1187.27 325.584 C 1191.65 322.452 1186.41 324.537 1192.64 320.927 C 1183.97 319.189 1175.01 317.057 1166.35 315.124 L 1153.47 312.319 L 1133.29 307.366 C 1123.42 304.717 1113.57 302.016 1103.73 299.263 L 1094.24 296.545 L 1076.33 291.318 C 1073.45 290.315 1069.62 289.416 1066.61 288.617 L 1050.74 283.245 C 1042.73 280.848 1033.89 277.692 1025.89 275.028 L 1018.85 272.6 C 1014.6 271.686 1000.34 266.388 995.007 264.693 C 982.556 259.389 968.107 254.673 955.181 249.443 C 947.445 247.254 927.031 238.257 918.77 234.838 C 847.406 204.332 781.66 168.383 715.312 128.489 C 709.978 125.393 706.071 123.076 701.05 119.509 C 696.45 118.216 691.649 112.852 685.631 112.335 L 683.606 114.061 L 683.185 113.739 C 680.542 107.31 677.657 59.4307 676.914 49.4423 L 673.89 46.6885 C 676.367 33.075 679.17 36.8741 690.228 32.311 C 695.815 30.0057 693.316 26.2211 694.042 23.4054 z"/>
<path transform="translate(0,0)" fill="url(#Gradient9)" d="M 1298.49 476.435 C 1310.76 482.586 1309.81 477.249 1320.92 473.075 C 1323.54 472.093 1327.31 478.266 1330.47 478.156 C 1331.22 476.308 1331.29 475.917 1332.48 474.256 L 1333.18 476.316 C 1336.02 469.618 1331.91 402.339 1337.02 396.376 C 1338.1 414.67 1336.53 444.694 1336.24 464.134 C 1335.75 499.585 1335.91 535.042 1336.73 570.487 C 1340.68 767.083 1354.58 880.246 1251.48 1060.06 C 1237.95 1083.44 1223.31 1106.15 1207.6 1128.13 C 1195.26 1145.06 1181.54 1161.22 1170.07 1179.02 C 1166.4 1184.72 1155.17 1191.7 1150.51 1197.93 L 1151.06 1198.23 L 1153.67 1196.8 C 1153.33 1200.17 1139.76 1214.84 1137.05 1218.04 C 1099.65 1262.22 1059.59 1304.71 1015.64 1342.47 C 1005.97 1350.78 997.084 1360.5 986.123 1367.23 C 971.483 1383.23 961.633 1390.05 946.055 1403.96 C 905.809 1439.92 863.283 1471.58 820.645 1504.41 C 805.329 1516.2 782.698 1532 768.633 1543.7 C 755.693 1553.9 742.328 1562.99 729.094 1572.76 C 713.9 1583.97 699.075 1595.95 683.01 1605.92 C 679.384 1608.17 677.163 1608.51 673.053 1607.43 C 677.945 1605.58 689.385 1599.35 690.483 1594 C 692.641 1593.7 701.646 1588.04 701.622 1586.6 C 701.372 1571.61 703.658 1553.04 707.553 1538.5 L 708.366 1539.79 C 709.954 1538.47 713.367 1531.45 717.535 1528.19 C 742.97 1508.27 769.799 1488.52 794.991 1468.47 C 871.907 1408.32 947.159 1346.08 1020.66 1281.81 C 1033.84 1270.09 1045.61 1256.45 1058.08 1245.12 C 1080.19 1225.03 1099.23 1205.39 1118.61 1182.61 C 1127.53 1172.12 1135.83 1157.63 1144.55 1146.53 C 1158.31 1129.03 1170.8 1112.48 1183.7 1094.22 C 1206.88 1061.39 1228.2 1025.72 1246.52 989.948 C 1255.95 970.557 1261.61 949.362 1268.76 929.247 C 1286.81 878.525 1295.46 822.984 1298.12 769.266 C 1299.61 739.328 1297.6 705.973 1297.28 675.566 L 1296.25 511.779 C 1296.22 484.561 1295.38 449.967 1296.91 423.362 C 1299.63 429.943 1298.53 466.53 1298.49 476.435 z"/>
<path transform="translate(0,0)" fill="rgb(7,28,38)" d="M 761.033 1542.89 C 778.162 1531.27 798.095 1515.12 814.894 1502.41 C 851.419 1474.99 887.466 1446.94 923.018 1418.28 C 938.054 1406.11 970.543 1374.81 986.123 1367.23 C 971.483 1383.23 961.633 1390.05 946.055 1403.96 C 905.809 1439.92 863.283 1471.58 820.645 1504.41 C 805.329 1516.2 782.698 1532 768.633 1543.7 L 761.033 1542.89 z"/>
<path transform="translate(0,0)" fill="rgb(7,28,38)" d="M 690.483 1594 C 692.641 1593.7 701.646 1588.04 701.622 1586.6 C 701.372 1571.61 703.658 1553.04 707.553 1538.5 L 708.366 1539.79 C 707.316 1547.91 702.671 1573.31 709.167 1578.59 C 714.354 1578.67 753.18 1548.27 761.033 1542.89 L 768.633 1543.7 C 755.693 1553.9 742.328 1562.99 729.094 1572.76 C 713.9 1583.97 699.075 1595.95 683.01 1605.92 C 679.384 1608.17 677.163 1608.51 673.053 1607.43 C 677.945 1605.58 689.385 1599.35 690.483 1594 z"/>
<path transform="translate(0,0)" fill="rgb(30,157,178)" d="M 839.383 149.48 C 839.985 148.778 839.687 149.268 839.852 147.826 C 830.141 143.092 820.626 137.968 811.328 132.467 C 820.132 127.594 830.55 124.569 835.373 114.882 C 838.396 113.953 851.549 122.643 857.791 125.153 L 859.26 124.277 C 878.572 132.466 897.949 143.486 917.407 151.639 C 1009.24 190.12 1101.87 221.783 1199.32 242.985 C 1214 246.177 1333.65 268.498 1336.48 271.63 C 1339.92 282.517 1338.36 379.321 1337.02 396.376 C 1331.91 402.339 1336.02 469.618 1333.18 476.316 L 1332.48 474.256 C 1331.29 475.917 1331.22 476.308 1330.47 478.156 C 1327.31 478.266 1323.54 472.093 1320.92 473.075 C 1309.81 477.249 1310.76 482.586 1298.49 476.435 C 1298.53 466.53 1299.63 429.943 1296.91 423.362 C 1296.32 409.595 1296.9 390.877 1296.93 376.776 C 1296.8 351.735 1296.97 326.694 1297.46 301.657 C 1286.95 300.647 1272.02 297.216 1261.39 295.028 C 1241.86 291.131 1222.4 286.885 1203.01 282.294 C 1168.62 274.357 1134.43 265.571 1100.46 255.945 C 1019.77 232.268 913.355 190.204 839.383 149.48 z"/>
<path transform="translate(0,0)" fill="rgb(30,157,178)" d="M 1205.56 981.269 C 1217.72 967.224 1221.27 939.925 1230.22 925.223 C 1229.51 937.92 1210 974.304 1210.5 981.165 C 1204.53 996.876 1194.94 1012.19 1186.76 1026.9 C 1100.34 1182.32 918.805 1333.44 776.621 1437.72 C 751.03 1456.49 726.092 1477.75 698.846 1494.14 L 694.861 1492.27 C 698.433 1489.32 701.937 1486.88 705.654 1484.16 C 741.686 1457.79 779.468 1431.15 814.821 1404.04 C 857.685 1371.18 899.423 1336.87 939.964 1301.19 C 1050.17 1205.2 1139.03 1113.27 1205.56 981.269 z"/>
<path transform="translate(0,0)" fill="rgb(174,153,111)" d="M 694.042 23.4054 C 712.614 36.9564 729.787 48.7117 748.774 61.5289 C 750.343 67.0745 766.89 78.4862 772.094 81.6559 C 765.857 87.4681 758.958 90.6062 758.071 97.738 C 753.405 99.7173 753.18 95.5947 747.095 95.3719 C 739.791 91.7644 730.943 84.7769 722.799 80.3642 C 714.54 72.9078 687.07 54.3251 676.914 49.4423 L 673.89 46.6885 C 676.367 33.075 679.17 36.8741 690.228 32.311 C 695.815 30.0057 693.316 26.2211 694.042 23.4054 z"/>
<path transform="translate(0,0)" fill="rgb(104,151,149)" d="M 748.774 61.5289 C 772.984 76.8286 795.303 90.4845 820.473 104.244 C 826.331 107.446 856.482 121.921 859.26 124.277 L 857.791 125.153 C 851.549 122.643 838.396 113.953 835.373 114.882 C 830.55 124.569 820.132 127.594 811.328 132.467 C 820.626 137.968 830.141 143.092 839.852 147.826 C 839.687 149.268 839.985 148.778 839.383 149.48 C 821.009 142.27 764.177 106.78 747.095 95.3719 C 753.18 95.5947 753.405 99.7173 758.071 97.738 C 758.958 90.6062 765.857 87.4681 772.094 81.6559 C 766.89 78.4862 750.343 67.0745 748.774 61.5289 z"/>
<path transform="translate(0,0)" fill="rgb(95,35,23)" d="M 676.914 49.4423 C 687.07 54.3251 714.54 72.9078 722.799 80.3642 C 716.085 80.6227 712.26 72.6404 706.874 71.9152 C 701.294 79.3818 691.759 99.902 692.041 109.801 C 692.157 113.849 696.346 115.641 699.728 116.948 C 700.06 117.551 700.889 118.924 701.05 119.509 C 696.45 118.216 691.649 112.852 685.631 112.335 L 683.606 114.061 L 683.185 113.739 C 680.542 107.31 677.657 59.4307 676.914 49.4423 z"/>
<path transform="translate(0,0)" fill="rgb(25,97,117)" d="M 1247.74 850.165 C 1249.27 859.405 1239 888.973 1237.62 901.014 C 1243.6 892.516 1244.69 871.571 1247.5 866.798 C 1251.58 874.247 1218.35 970.966 1210.5 981.165 C 1210 974.304 1229.51 937.92 1230.22 925.223 C 1221.27 939.925 1217.72 967.224 1205.56 981.269 C 1208.51 972.84 1212.8 964.021 1216.33 955.669 C 1230.88 921.23 1239.22 886.421 1247.74 850.165 z"/>
<path transform="translate(0,0)" fill="rgb(58,142,168)" d="M 1192.64 320.927 C 1205.71 323.783 1250.78 331.785 1258.11 338.006 L 1259.16 340.564 L 1258.12 342.9 L 1256.12 343.654 C 1254.48 342.361 1254.58 342.457 1253.58 340.617 C 1247.63 338.394 1234.12 335.86 1227.58 334.53 C 1213.82 331.734 1200.91 328.96 1187.27 325.584 C 1191.65 322.452 1186.41 324.537 1192.64 320.927 z"/>
<path transform="translate(0,0)" fill="rgb(30,157,178)" d="M 715.312 128.489 C 781.66 168.383 847.406 204.332 918.77 234.838 L 916.32 237.42 C 914.454 237.219 912.803 236.886 910.985 237.281 C 885.85 227.259 861.165 213.867 836.674 202.279 C 793.774 181.982 753.242 157.417 712.5 133.199 L 715.312 128.489 z"/>
<path transform="translate(0,0)" fill="rgb(18,168,184)" d="M 918.77 234.838 C 927.031 238.257 947.445 247.254 955.181 249.443 C 968.107 254.673 982.556 259.389 995.007 264.693 C 1000.34 266.388 1014.6 271.686 1018.85 272.6 L 1025.89 275.028 C 1033.89 277.692 1042.73 280.848 1050.74 283.245 L 1066.61 288.617 C 1069.62 289.416 1073.45 290.315 1076.33 291.318 L 1072.12 295.881 L 1062.15 292.934 C 1057.14 291.267 1052.13 289.631 1047.1 288.028 C 1041.67 286.909 1028.73 282.47 1022.89 280.639 L 1013.98 277.542 C 1006.2 274.825 998.473 271.968 990.798 268.973 C 978.468 264.416 966.17 259.77 953.906 255.035 C 940.152 248.786 925.292 243.796 910.985 237.281 C 912.803 236.886 914.454 237.219 916.32 237.42 L 918.77 234.838 z"/>
<path transform="translate(0,0)" fill="rgb(30,157,178)" d="M 1076.33 291.318 L 1094.24 296.545 L 1103.73 299.263 C 1113.57 302.016 1123.42 304.717 1133.29 307.366 L 1128.84 311.638 C 1119.22 308.976 1109.58 306.376 1099.93 303.837 L 1089.07 300.878 L 1072.12 295.881 L 1076.33 291.318 z"/>
<path transform="translate(0,0)" fill="rgb(58,142,168)" d="M 683.606 114.061 L 685.631 112.335 C 691.649 112.852 696.45 118.216 701.05 119.509 C 706.071 123.076 709.978 125.393 715.312 128.489 L 712.5 133.199 C 702.416 127.235 693.844 119.98 683.606 114.061 z"/>
<path transform="translate(0,0)" fill="rgb(30,157,178)" d="M 1166.35 315.124 C 1175.01 317.057 1183.97 319.189 1192.64 320.927 C 1186.41 324.537 1191.65 322.452 1187.27 325.584 C 1178.96 323.857 1171.27 322.202 1163.05 320.089 C 1163.6 318.363 1165.18 316.653 1166.35 315.124 z"/>
<path transform="translate(0,0)" fill="rgb(30,157,178)" d="M 1133.29 307.366 L 1153.47 312.319 C 1152.04 315.27 1152.03 315.442 1149.24 316.898 L 1128.84 311.638 L 1133.29 307.366 z"/>
<path transform="translate(0,0)" fill="rgb(104,151,149)" d="M 677.465 1503.04 C 680.958 1502.73 690.224 1495.15 694.861 1492.27 L 698.846 1494.14 C 694.66 1496.99 685.921 1503.3 681.788 1505.4 L 679.62 1506.49 L 677.465 1503.04 z"/>
<path transform="translate(0,0)" fill="rgb(58,142,168)" d="M 1153.47 312.319 L 1166.35 315.124 C 1165.18 316.653 1163.6 318.363 1163.05 320.089 C 1160.71 319.898 1152.01 317.58 1149.24 316.898 C 1152.03 315.442 1152.04 315.27 1153.47 312.319 z"/>
<path transform="translate(0,0)" fill="url(#Gradient8)" d="M 927.618 420.495 C 937.273 419.6 961.091 420.727 972.104 420.777 L 1072.32 421.185 C 1091.31 420.476 1112.46 421.033 1131.68 420.963 C 1143.21 420.921 1162.84 420.457 1173.4 421.419 C 1173.93 424.483 1173.12 425.162 1171.97 428.364 C 1164.34 447.36 1149.27 469.192 1139.44 488.085 L 1080.78 599.467 C 1074.34 611.541 1058.98 642.047 1051.96 652.373 C 1044.66 669.747 1025.63 703.239 1016.11 720.528 C 997.984 753.609 980.045 786.795 962.299 820.083 C 955.871 834.938 946.496 850.159 938.869 864.489 C 891.681 953.152 842.397 1040.48 793.503 1128.18 L 725.339 1252.05 C 716.872 1267.11 708.763 1282.37 699.748 1297.1 C 695.889 1303.4 690.948 1305.57 687.988 1311.71 C 687.415 1312.93 687.26 1313.14 686.335 1314.06 C 687.902 1314.71 688.687 1313.58 691.004 1314.91 C 685.327 1326.89 680.849 1337.43 677.678 1350.3 C 666.925 1335.01 657.824 1315.17 649.015 1298.39 L 612.998 1231.18 C 581.263 1171.26 547.755 1112.29 515.902 1052.02 C 433.104 897.165 352.285 741.255 273.465 584.334 C 246.548 531.276 217.583 477.377 191.638 424.016 C 210.001 423.314 228.379 423.132 246.752 423.472 L 376.667 423.529 C 398.75 423.576 424.374 423.018 446.002 424.069 L 450.941 435.195 C 472.956 477.625 496.217 524.077 517.359 566.868 C 527.691 584.184 537.679 605.706 547.014 623.763 L 589.941 704.912 C 613.393 749.379 636.566 793.992 659.457 838.75 C 666.703 852.835 675.39 867.911 682.149 881.808 C 687.311 870.309 709.48 828.337 715.675 818.76 C 717.395 814.914 719.622 810.826 721.587 807.08 C 738.016 775.757 755.499 744.902 771.854 713.547 L 927.618 420.495 z"/>
<path transform="translate(0,0)" fill="rgb(18,168,184)" d="M 927.618 420.495 C 937.273 419.6 961.091 420.727 972.104 420.777 L 1072.32 421.185 C 1091.31 420.476 1112.46 421.033 1131.68 420.963 C 1143.21 420.921 1162.84 420.457 1173.4 421.419 C 1173.93 424.483 1173.12 425.162 1171.97 428.364 C 1157.23 423.875 1132.74 450.715 1118.18 454.894 L 1117.43 456.391 C 1085.83 456.983 1051.64 455.583 1019.53 455.85 C 1000.45 456.009 962.902 456.961 946.105 455.369 C 940.301 472.166 915.463 516.625 905.748 535.795 C 850.674 646.255 793.838 755.828 735.262 864.472 L 703.538 923.69 C 698.462 933.175 685.531 960.184 679.233 966.261 C 674.297 964.176 617.521 843.082 609.167 828.387 C 603.159 817.818 588.425 790.482 582.373 778.869 L 519.491 656.939 C 504.691 629.254 490.381 601.309 476.569 573.117 C 469.46 558.842 459.69 540.793 454.128 526.043 C 455.574 525.165 455.056 525.408 456.695 525.014 L 461.078 531.784 C 460.075 529.107 459.215 526.687 458.35 523.962 C 455.009 520.603 441.907 492.663 438.011 486.07 C 432.359 476.505 426.584 466.832 420.123 457.35 C 427.626 453.061 437.391 440.269 447.076 437.653 L 450.941 435.195 C 472.956 477.625 496.217 524.077 517.359 566.868 C 527.691 584.184 537.679 605.706 547.014 623.763 L 589.941 704.912 C 613.393 749.379 636.566 793.992 659.457 838.75 C 666.703 852.835 675.39 867.911 682.149 881.808 C 687.311 870.309 709.48 828.337 715.675 818.76 C 717.395 814.914 719.622 810.826 721.587 807.08 C 738.016 775.757 755.499 744.902 771.854 713.547 L 927.618 420.495 z"/>
<path transform="translate(0,0)" fill="rgb(65,204,210)" d="M 927.618 420.495 C 937.273 419.6 961.091 420.727 972.104 420.777 L 1072.32 421.185 C 1076.74 424.319 1093.04 420.977 1097.18 423.144 C 1092.41 423.846 1078.75 423.594 1073.05 423.689 L 1020.17 424.69 C 1001.82 425.092 984.117 425.721 965.639 425.664 C 954.302 425.629 946.563 427.868 933.77 427.174 C 921.896 437.559 877.359 524.757 867.234 544.974 C 859.973 559.471 847.83 579.252 840.016 593.758 L 778.565 709.501 C 773.545 718.893 722.368 814 722.377 814.393 C 720.69 815.874 717.899 818.83 715.916 818.978 L 715.675 818.76 C 717.395 814.914 719.622 810.826 721.587 807.08 C 738.016 775.757 755.499 744.902 771.854 713.547 L 927.618 420.495 z"/>
<path transform="translate(0,0)" fill="rgb(30,157,178)" d="M 420.123 457.35 C 427.626 453.061 437.391 440.269 447.076 437.653 C 448.942 446.244 459.003 462.404 459.693 468.702 C 454.149 473.336 444.409 483.077 439.986 486.303 C 442.875 490.404 458.879 521.15 458.35 523.962 C 455.009 520.603 441.907 492.663 438.011 486.07 C 432.359 476.505 426.584 466.832 420.123 457.35 z"/>
<path transform="translate(0,0)" fill="url(#Gradient7)" d="M 450.941 435.195 C 472.956 477.625 496.217 524.077 517.359 566.868 L 516.561 567.246 C 510.818 564.241 509.133 549.48 504.427 545.586 L 501.344 546.791 C 490.445 530.576 482.098 507.155 471.079 490.085 C 466.85 483.535 464.661 475.634 459.693 468.702 C 459.003 462.404 448.942 446.244 447.076 437.653 L 450.941 435.195 z"/>
<path transform="translate(0,0)" fill="rgb(65,204,210)" d="M 946.105 455.369 C 952.156 455.183 955.443 453.477 961.11 452.909 C 982.761 450.736 1004.4 451.466 1026.11 451.518 C 1055.95 451.589 1086.29 450.33 1116.04 452.86 C 1116.04 452.86 1117.99 454.715 1118.18 454.894 L 1117.43 456.391 C 1085.83 456.983 1051.64 455.583 1019.53 455.85 C 1000.45 456.009 962.902 456.961 946.105 455.369 z"/>
<path transform="translate(0,0)" fill="rgb(59,182,196)" d="M 715.675 818.76 L 715.916 818.978 C 717.899 818.83 720.69 815.874 722.377 814.393 C 715.651 826.684 691.465 877.957 684.585 884.103 L 682.95 884.097 L 682.149 881.808 C 687.311 870.309 709.48 828.337 715.675 818.76 z"/>
<path transform="translate(0,0)" fill="rgb(224,78,0)" d="M 191.638 424.016 C 210.001 423.314 228.379 423.132 246.752 423.472 C 252.662 425.974 260.198 423.966 261.824 428.52 C 264.045 434.737 268.748 444.493 268.232 450.877 C 261.869 455.791 259.561 449.916 254.713 452.6 C 253.548 455.571 253.599 454.138 254.217 457.014 C 275.111 510.138 303.869 559.841 328.034 611.452 C 348.267 654.664 372.032 696.181 393.438 738.659 C 485.375 920.841 579.402 1101.96 675.5 1281.98 C 678.272 1289.08 683.91 1309.8 686.335 1314.06 C 687.902 1314.71 688.687 1313.58 691.004 1314.91 C 685.327 1326.89 680.849 1337.43 677.678 1350.3 C 666.925 1335.01 657.824 1315.17 649.015 1298.39 L 612.998 1231.18 C 581.263 1171.26 547.755 1112.29 515.902 1052.02 C 433.104 897.165 352.285 741.255 273.465 584.334 C 246.548 531.276 217.583 477.377 191.638 424.016 z"/>
<path transform="translate(0,0)" fill="rgb(20,54,72)" d="M 937.514 806.012 C 946.929 802.176 1028.34 621.907 1042.74 611.277 C 1044.07 610.922 1047.36 610.076 1047.75 610.713 C 1050.84 615.781 1047.9 633.805 1050.64 639.533 C 1052.45 639.496 1052.72 639.479 1054.49 639.802 C 1050.36 644.74 1051.21 643.082 1051.66 650.451 L 1051.96 652.373 C 1044.66 669.747 1025.63 703.239 1016.11 720.528 C 997.984 753.609 980.045 786.795 962.299 820.083 C 955.871 834.938 946.496 850.159 938.869 864.489 C 891.681 953.152 842.397 1040.48 793.503 1128.18 L 725.339 1252.05 C 716.872 1267.11 708.763 1282.37 699.748 1297.1 C 695.889 1303.4 690.948 1305.57 687.988 1311.71 C 687.415 1312.93 687.26 1313.14 686.335 1314.06 C 683.91 1309.8 678.272 1289.08 675.5 1281.98 C 680.622 1278.47 713.955 1214.04 719.62 1203.75 L 867.597 935.008 L 913.559 849.905 C 921.006 836.075 929.541 819.043 937.514 806.012 z"/>
<path transform="translate(0,0)" fill="rgb(25,97,117)" d="M 962.299 820.083 C 960.097 814.816 1037.79 682.775 1041.99 666.527 C 1043.2 661.859 1041.24 660.485 1041.82 657.69 C 1044.9 654.316 1047.14 651.727 1051.66 650.451 L 1051.96 652.373 C 1044.66 669.747 1025.63 703.239 1016.11 720.528 C 997.984 753.609 980.045 786.795 962.299 820.083 z"/>
<path transform="translate(0,0)" fill="url(#Gradient6)" d="M 1171.97 428.364 C 1164.34 447.36 1149.27 469.192 1139.44 488.085 L 1080.78 599.467 C 1074.34 611.541 1058.98 642.047 1051.96 652.373 L 1051.66 650.451 C 1051.21 643.082 1050.36 644.74 1054.49 639.802 C 1052.72 639.479 1052.45 639.496 1050.64 639.533 C 1047.9 633.805 1050.84 615.781 1047.75 610.713 C 1047.36 610.076 1044.07 610.922 1042.74 611.277 C 1028.34 621.907 946.929 802.176 937.514 806.012 C 940.439 794.307 963.368 757.618 969.767 744.666 C 1012.29 658.607 1060.75 575.652 1102.46 489.197 C 1105.89 482.083 1116.64 462.462 1117.43 456.391 L 1118.18 454.894 C 1132.74 450.715 1157.23 423.875 1171.97 428.364 z"/>
<path transform="translate(0,0)" fill="rgb(243,158,35)" d="M 246.752 423.472 L 376.667 423.529 C 398.75 423.576 424.374 423.018 446.002 424.069 L 450.941 435.195 L 447.076 437.653 C 437.391 440.269 427.626 453.061 420.123 457.35 C 416.313 457.825 414.587 458.075 410.801 459.1 L 323.503 457.994 C 313.281 457.785 260.173 454.996 254.217 457.014 C 253.599 454.138 253.548 455.571 254.713 452.6 C 259.561 449.916 261.869 455.791 268.232 450.877 C 268.748 444.493 264.045 434.737 261.824 428.52 C 260.198 423.966 252.662 425.974 246.752 423.472 z"/>
<path transform="translate(0,0)" fill="rgb(65,204,210)" d="M 420.123 457.35 C 426.584 466.832 432.359 476.505 438.011 486.07 C 441.907 492.663 455.009 520.603 458.35 523.962 C 459.215 526.687 460.075 529.107 461.078 531.784 L 456.695 525.014 C 455.056 525.408 455.574 525.165 454.128 526.043 C 441.39 506.773 433.755 480.327 418.555 462.253 C 416.234 459.494 414.163 459.73 410.801 459.1 C 414.587 458.075 416.313 457.825 420.123 457.35 z"/>
<path transform="translate(0,0)" fill="rgb(62,124,152)" d="M 598.341 309.955 C 605.651 313.747 629.495 313.63 636.582 309.062 C 635.773 311.441 635.211 314.15 633.638 315.858 C 631.935 319.143 628.988 325.21 627.061 328.05 C 623.115 334.169 619.861 339.679 616.254 345.978 C 615.588 352.415 608.621 362.148 605.004 368.066 C 606.409 368.839 606.581 368.852 608.132 368.989 L 609.45 369.094 C 610.992 373.429 627.139 398.107 630.873 404.679 C 646.891 432.761 663.748 460.672 678.542 489.39 C 680.834 493.838 687.199 500.613 684.133 504.43 C 676.588 506.181 657.267 505.182 649.458 503.274 C 643.005 501.697 638.313 485.883 631.963 479.863 C 618.721 485.89 622.63 511.113 597.023 504.667 C 591.595 503.3 588.676 496.482 585.382 491.951 C 584.083 481.506 604.128 454.971 607.793 444.489 C 610.26 437.431 595.023 418.67 591.589 410.38 C 587.531 400.584 592.098 398.489 596.726 385.775 L 595.59 383.954 C 588.178 392.432 564.541 438.448 558.26 442.775 L 556.36 442.123 C 552.726 438.653 543.858 422.359 542.096 417.181 C 536.801 401.621 549.423 393.693 554.383 384.069 C 553.284 376.785 524.57 386.116 518.087 378.038 C 508.519 366.115 513.074 358.132 521.109 347.939 C 539.233 347.962 557.356 347.798 575.477 347.447 C 581.509 338.627 588.308 325.539 594.601 315.766 C 594.978 314.385 597.393 311.297 598.341 309.955 z"/>
<path transform="translate(0,0)" fill="rgb(25,97,117)" d="M 598.341 309.955 C 605.651 313.747 629.495 313.63 636.582 309.062 C 635.773 311.441 635.211 314.15 633.638 315.858 C 631.935 319.143 628.988 325.21 627.061 328.05 C 623.115 334.169 619.861 339.679 616.254 345.978 C 601.705 368.919 587.367 395.535 572.247 417.614 C 569.484 422.949 565.458 428.993 562.21 434.156 C 561.852 435.998 561.463 435.907 560.039 437.543 C 555.275 434.584 546.392 417.21 543.077 411.269 C 550.215 398.874 557.707 389.745 562.894 376.274 C 549.186 376.972 535.454 377.069 521.738 376.566 C 514.195 364.661 515.331 363.695 521.961 351.806 C 540.35 352.172 558.743 352.267 577.134 352.09 C 583.446 344.62 592.025 330.289 595.69 320.867 C 596.649 318.401 595.849 318.01 594.601 315.766 C 594.978 314.385 597.393 311.297 598.341 309.955 z"/>
<path transform="translate(0,0)" fill="rgb(59,182,196)" d="M 580.487 396.814 C 590.751 377.527 612.237 341.276 625.278 323.902 L 626.483 323.734 L 627.061 328.05 C 623.115 334.169 619.861 339.679 616.254 345.978 C 601.705 368.919 587.367 395.535 572.247 417.614 L 570.752 413.77 C 572.727 410.817 575.442 405.591 577.263 402.333 L 580.487 396.814 z"/>
<path transform="translate(0,0)" fill="rgb(62,124,152)" d="M 589.161 360.523 L 593.871 356.762 C 595.979 357.151 597.597 358.259 599.488 359.311 C 607.946 346.184 617.401 329.841 626.771 317.155 C 627.431 316.262 630.27 315.159 631.451 314.734 L 633.638 315.858 C 631.935 319.143 628.988 325.21 627.061 328.05 L 626.483 323.734 L 625.278 323.902 C 612.237 341.276 590.751 377.527 580.487 396.814 C 579.758 376.265 587.65 374.999 589.161 360.523 z"/>
<path transform="translate(0,0)" fill="rgb(16,92,105)" d="M 577.263 402.333 C 576.829 401.014 575.817 397.671 575.682 396.457 C 574.794 388.513 584.247 366.235 589.161 360.523 C 587.65 374.999 579.758 376.265 580.487 396.814 L 577.263 402.333 z"/>
<path transform="translate(0,0)" fill="rgb(62,124,152)" d="M 570.752 413.77 L 572.247 417.614 C 569.484 422.949 565.458 428.993 562.21 434.156 C 562.1 426.682 566.935 420.019 570.752 413.77 z"/>
<path transform="translate(0,0)" fill="url(#Gradient5)" d="M 616.062 441.59 C 608.511 431.406 603.479 417.246 594.507 408.939 C 593.815 408.298 590.539 407.651 591.34 405.267 C 594.168 396.85 603.136 379.135 609.897 373.978 C 611.891 375.011 614.037 379.846 615.264 382.112 C 619.224 392.013 631.449 407.148 634.14 414.157 C 640.445 424.955 660.378 457.314 662.606 466.948 C 662.091 467.183 661.107 467.698 660.612 467.778 C 661.249 471.17 677.741 495.859 680.834 500.861 C 670.019 500.987 660.767 501.107 650.006 500.337 C 644.52 488.726 638.222 477.515 631.16 466.789 C 626.097 473.639 614.056 501.648 606.123 501.787 C 570.137 502.422 608.052 455.299 616.062 441.59 z"/>
<path transform="translate(0,0)" fill="rgb(20,54,72)" d="M 623.498 406.338 C 626.307 410.714 628.583 414.611 631.129 419.149 L 634.598 418.01 L 634.14 414.157 C 640.445 424.955 660.378 457.314 662.606 466.948 C 662.091 467.183 661.107 467.698 660.612 467.778 L 658.423 465.24 C 647.934 463.071 647.099 461.215 639.588 452.676 C 636 449.081 624.828 431.891 626.939 426.485 C 631.263 415.417 622.753 414.267 623.498 406.338 z"/>
<path transform="translate(0,0)" fill="rgb(30,157,178)" d="M 634.14 414.157 C 640.445 424.955 660.378 457.314 662.606 466.948 C 662.091 467.183 661.107 467.698 660.612 467.778 L 658.423 465.24 C 652.228 453.12 638.663 432.198 631.129 419.149 L 634.598 418.01 L 634.14 414.157 z"/>
<path transform="translate(0,0)" fill="rgb(58,142,168)" d="M 615.264 382.112 C 619.224 392.013 631.449 407.148 634.14 414.157 L 634.598 418.01 L 631.129 419.149 C 628.583 414.611 626.307 410.714 623.498 406.338 C 621.678 401.19 614.825 392.097 613.693 386.048 C 613.313 384.021 613.75 384.262 615.264 382.112 z"/>
<path transform="translate(0,0)" fill="url(#Gradient4)" d="M 173.589 581.463 C 174.834 571.947 174.113 557.175 174.084 547.294 C 173.898 530.269 174.16 513.241 174.87 496.23 C 174.997 492.38 174.584 484.077 175.67 481.152 L 176.731 481.582 C 178.257 487.679 177.608 505.403 177.535 512.434 C 176.711 591.415 171.524 669.159 178.848 748.174 C 194.852 920.851 279.977 1057.7 406.21 1172.23 L 406.532 1172.92 C 407.846 1175.7 407.966 1175.95 409.93 1178.23 C 409.386 1182.08 404.775 1187.06 401.623 1184.17 C 397.144 1180.05 397.795 1179.28 391.826 1177.19 C 389.005 1175.81 376.846 1164.43 373.938 1161.64 C 234.051 1027.7 162.547 883.036 159.917 687.368 C 158.335 679.963 158.856 660.047 158.689 651.587 C 157.834 608.317 160.874 565.38 164.539 522.26 C 167.287 528.392 159.409 588.838 162.066 593.274 L 173 593.264 C 172.889 588.596 173.103 586.108 173.589 581.463 z"/>
<path transform="translate(0,0)" fill="rgb(95,35,23)" d="M 159.917 687.368 C 158.335 679.963 158.856 660.047 158.689 651.587 C 157.834 608.317 160.874 565.38 164.539 522.26 C 167.287 528.392 159.409 588.838 162.066 593.274 L 173 593.264 C 172.889 588.596 173.103 586.108 173.589 581.463 L 173.914 630.503 L 173.943 630.505 C 170.201 629.382 167.723 628.33 163.801 628.857 C 161.811 630.09 161.507 629.764 161.086 632.502 C 158.624 648.508 161.756 672.167 159.917 687.368 z"/>
<path transform="translate(0,0)" fill="rgb(18,168,184)" d="M 594.183 223.689 C 602.361 223.336 606.006 223.276 614.224 224.094 C 623.236 239.383 632.099 254.759 640.811 270.222 C 654.33 270.327 669.907 270.162 683.295 271.145 C 685.328 270.604 687.689 268.276 689.401 266.842 C 696.498 277.694 703.574 290.566 709.968 301.967 C 703.786 303.738 702.085 304.331 695.741 304.287 C 693.746 304.076 690.553 304.279 688.444 304.337 C 680.676 305.453 640.944 303.562 637.799 307.023 C 637.377 307.487 636.885 308.49 636.582 309.062 C 629.495 313.63 605.651 313.747 598.341 309.955 C 598.228 308.695 597.866 307.544 597.554 306.307 C 589.438 302.726 558.943 306.783 547.824 304.183 C 552.845 294.075 562.451 280.71 566.287 271.713 C 570.705 269.575 594.61 270.476 601.027 270.5 C 600.13 267.855 595.083 259.143 593.482 256.244 C 589.641 251.333 587.003 245.422 583.757 240.127 C 586.889 235.032 590.709 228.404 594.183 223.689 z"/>
<path transform="translate(0,0)" fill="rgb(16,92,105)" d="M 547.824 304.183 L 558.781 303.92 C 596.187 303.718 650.05 305.85 686.327 303.625 L 688.444 304.337 C 680.676 305.453 640.944 303.562 637.799 307.023 C 637.377 307.487 636.885 308.49 636.582 309.062 C 629.495 313.63 605.651 313.747 598.341 309.955 C 598.228 308.695 597.866 307.544 597.554 306.307 C 589.438 302.726 558.943 306.783 547.824 304.183 z"/>
<path transform="translate(0,0)" fill="rgb(65,204,210)" d="M 558.781 303.92 L 557.702 302.597 C 566.156 302.641 575.396 301.832 583.905 301.375 C 618.754 299.503 653.367 301.158 688.175 301.519 L 688.623 302.334 L 689.164 301.547 L 689.992 302.076 C 688.646 302.508 687.245 302.738 686.327 303.625 C 650.05 305.85 596.187 303.718 558.781 303.92 z"/>
<path transform="translate(0,0)" fill="rgb(16,92,105)" d="M 689.401 266.842 C 696.498 277.694 703.574 290.566 709.968 301.967 C 703.786 303.738 702.085 304.331 695.741 304.287 L 702.108 302.237 C 690.967 295.513 691.843 289.949 685.958 278.865 C 684.432 275.99 684.813 274.033 683.295 271.145 C 685.328 270.604 687.689 268.276 689.401 266.842 z"/>
<path transform="translate(0,0)" fill="rgb(59,182,196)" d="M 601.027 270.5 L 599.497 272.109 L 599.754 273.874 L 595.693 275.397 C 587.633 275.802 575.211 276.605 567.734 274.731 L 566.287 271.713 C 570.705 269.575 594.61 270.476 601.027 270.5 z"/>
<path transform="translate(0,0)" fill="rgb(65,204,210)" d="M 593.482 256.244 L 595.219 255.682 C 599 257.682 606.999 270.375 607.386 274.544 C 603.488 275.524 599.714 275.36 595.693 275.397 L 599.754 273.874 L 599.497 272.109 L 601.027 270.5 C 600.13 267.855 595.083 259.143 593.482 256.244 z"/>
<path transform="translate(0,0)" fill="rgb(25,97,117)" d="M 794.032 284.222 C 799.37 291.038 804.472 300.505 808.502 308.145 C 809.909 311.342 811.256 314.334 812.457 317.625 C 807.357 328.061 801.014 337.586 796.078 347.712 C 807.218 347.402 820.723 348.341 831.082 347.794 L 831.94 347.592 C 841.256 352.641 843.818 371.576 834.742 377.757 C 833.61 378.529 831.846 381.627 830.135 381.975 C 813.696 385.316 794.833 378.659 778.525 383.134 C 771.004 385.497 762.981 412.628 754.007 416.069 C 749.133 417.937 741.557 415.236 735.635 417.398 C 737.69 419.006 744.768 419.033 747.711 419.141 L 747.365 420.201 C 741.195 420.779 721.647 421.907 717.096 418.888 C 713.009 409.298 741.907 373.038 745.096 361.882 C 744.842 362.772 739.494 355.791 738.657 354.441 C 730.161 340.458 721.794 326.398 713.556 312.262 L 714.605 310.84 C 716.836 313.217 733.888 342.021 735.725 345.639 C 737.373 349.701 740.056 352.863 742.697 356.369 C 748.65 348.264 755.213 340.053 759.736 331.046 C 762.167 326.207 761.75 325.154 760.645 320.051 C 762.605 321.917 763.133 322.514 764.086 325.046 C 764.037 336.122 746.262 348.615 746.722 359.28 L 747.513 359.737 C 751.248 357.002 762.615 329.516 768.491 326.77 C 771.665 323.064 790.633 290.059 794.032 284.222 z"/>
<path transform="translate(0,0)" fill="rgb(58,142,168)" d="M 794.032 284.222 C 799.37 291.038 804.472 300.505 808.502 308.145 L 804.313 305.51 L 802.519 307.039 L 801.425 306.559 C 799.778 303.471 798.162 301.046 796.264 298.134 C 794.645 297.946 793.535 297.424 792.927 298.413 C 788.116 306.25 770.425 335.553 768.966 342.335 C 771.77 349.444 769.584 351.794 766.607 358.501 L 768.964 359.217 C 765.877 368.025 751.214 380.892 743.096 385.505 C 731.802 391.924 732.766 399.533 724.203 408.224 C 723.268 408.421 722.072 408.721 721.12 408.808 C 724.549 402.202 731.895 388.408 736.023 382.747 C 745.64 364.843 759.886 344.676 768.491 326.77 C 771.665 323.064 790.633 290.059 794.032 284.222 z"/>
<path transform="translate(0,0)" fill="url(#Gradient3)" d="M 794.032 284.222 C 799.37 291.038 804.472 300.505 808.502 308.145 L 804.313 305.51 L 802.519 307.039 L 801.425 306.559 C 799.778 303.471 798.162 301.046 796.264 298.134 L 794.43 296.733 C 786.323 299.048 749.667 377.086 738.01 384.315 L 736.023 382.747 C 745.64 364.843 759.886 344.676 768.491 326.77 C 771.665 323.064 790.633 290.059 794.032 284.222 z"/>
<path transform="translate(0,0)" fill="rgb(20,54,72)" d="M 714.605 310.84 C 716.836 313.217 733.888 342.021 735.725 345.639 C 737.373 349.701 740.056 352.863 742.697 356.369 C 748.65 348.264 755.213 340.053 759.736 331.046 C 762.167 326.207 761.75 325.154 760.645 320.051 C 762.605 321.917 763.133 322.514 764.086 325.046 C 764.037 336.122 746.262 348.615 746.722 359.28 L 747.513 359.737 C 751.248 357.002 762.615 329.516 768.491 326.77 C 759.886 344.676 745.64 364.843 736.023 382.747 C 731.895 388.408 724.549 402.202 721.12 408.808 C 719.193 411.038 719.253 411.257 718.702 414.256 L 724.552 411.004 C 731.493 417.12 744.054 410.329 753.16 413.163 L 753.933 413.357 C 758.072 411.225 771.902 386.586 776.185 380.445 C 784.245 380.295 828.828 381.01 832.544 378.142 L 835.353 373.672 C 841.786 360.77 837.894 359.205 831.082 347.794 L 831.94 347.592 C 841.256 352.641 843.818 371.576 834.742 377.757 C 833.61 378.529 831.846 381.627 830.135 381.975 C 813.696 385.316 794.833 378.659 778.525 383.134 C 771.004 385.497 762.981 412.628 754.007 416.069 C 749.133 417.937 741.557 415.236 735.635 417.398 C 737.69 419.006 744.768 419.033 747.711 419.141 L 747.365 420.201 C 741.195 420.779 721.647 421.907 717.096 418.888 C 713.009 409.298 741.907 373.038 745.096 361.882 C 744.842 362.772 739.494 355.791 738.657 354.441 C 730.161 340.458 721.794 326.398 713.556 312.262 L 714.605 310.84 z"/>
<path transform="translate(0,0)" fill="rgb(30,157,178)" d="M 802.519 307.039 L 804.313 305.51 L 808.502 308.145 C 809.909 311.342 811.256 314.334 812.457 317.625 C 807.357 328.061 801.014 337.586 796.078 347.712 C 807.218 347.402 820.723 348.341 831.082 347.794 C 837.894 359.205 841.786 360.77 835.353 373.672 C 834.763 372.462 834.441 371.871 834.744 370.49 C 836.358 363.136 834.28 358.399 831.277 351.665 C 817.282 351.142 802.98 352.086 788.555 351.609 C 793.977 340.147 802.751 328.249 808.927 316.045 C 806.826 313.018 804.69 310.016 802.519 307.039 z"/>
<path transform="translate(0,0)" fill="rgb(58,142,168)" d="M 774.311 376.575 C 782.763 376.462 826.871 376.558 832.544 378.142 C 828.828 381.01 784.245 380.295 776.185 380.445 C 771.902 386.586 758.072 411.225 753.933 413.357 L 753.16 413.163 C 753.666 408.502 770.093 381.275 774.311 376.575 z"/>
<path transform="translate(0,0)" fill="url(#Gradient2)" d="M 785.347 459.525 C 779.461 459.463 759.057 457.829 754.598 459.909 C 753.546 466.359 764.426 477.592 766.731 483.926 C 772.169 498.874 745.32 514.306 735.347 502.603 C 730.827 497.3 714.133 462.597 709.488 461.207 C 693.594 456.448 663.792 466.467 654.691 441.839 C 654.196 440.572 649.027 426.578 649.02 426.787 C 655.25 422.473 673.129 423.07 680.638 423.976 C 704.802 423.691 728.969 423.671 753.134 423.919 C 766.147 423.993 789.081 423.734 801.578 425.344 C 801.176 427.925 800.713 428.496 799.476 430.856 C 799.376 438.003 789.283 453.159 785.347 459.525 z"/>
<path transform="translate(0,0)" fill="rgb(62,124,152)" d="M 680.638 423.976 C 704.802 423.691 728.969 423.671 753.134 423.919 C 766.147 423.993 789.081 423.734 801.578 425.344 C 801.176 427.925 800.713 428.496 799.476 430.856 C 793.453 439.673 790.061 448.256 784.595 456.523 C 773.051 456.947 761.504 457.294 749.956 457.566 C 760.441 478.46 781.059 505.518 738.684 503.548 C 734.198 496.074 728.997 487.8 724.849 480.229 L 727.779 479.199 C 730.866 483.404 737.064 496.645 739.391 501.551 C 743.033 501.443 749.924 501.644 752.995 500.508 C 773.475 492.928 748.756 463.709 742.182 453.463 C 754.281 452.516 769.792 453.38 782.481 453.013 C 788.325 444.035 793.099 436.04 798.422 426.733 C 784.104 428.772 667.287 432.952 659.876 425.899 C 661.158 424.151 676.293 425.053 680.638 423.976 z"/>
<path transform="translate(0,0)" fill="url(#Gradient1)" d="M 710.685 457.362 C 702.031 457.945 678.19 458.197 670.731 454.862 C 676.696 451.768 705.026 452.369 712.522 453.233 C 717.912 460.106 723.62 471.375 727.779 479.199 L 724.849 480.229 C 720.192 472.567 715.471 464.944 710.685 457.362 z"/>
<path transform="translate(0,0)" fill="rgb(18,168,184)" d="M 737.522 223.525 C 746.069 223.186 749.605 223.277 758.131 224.222 L 767.854 240.413 C 764.526 246.093 758.311 257.31 754.663 262.11 C 749.958 270.312 745.478 278.073 740.406 286.049 C 745.157 296.18 752.931 308.919 758.63 318.851 L 760.645 320.051 C 761.75 325.154 762.167 326.207 759.736 331.046 C 755.213 340.053 748.65 348.264 742.697 356.369 C 740.056 352.863 737.373 349.701 735.725 345.639 C 733.888 342.021 716.836 313.217 714.605 310.84 L 709.968 301.967 C 703.574 290.566 696.498 277.694 689.401 266.842 L 681.265 252.922 C 678.474 249.495 667.069 228.967 664.217 223.989 C 677.632 223.684 689.927 223.418 703.37 223.888 C 706.004 227.582 708.592 232.348 710.897 236.344 C 713.679 241.258 716.527 246.133 719.442 250.968 L 721.818 250.83 C 726.315 242.122 732.502 232.104 737.522 223.525 z"/>
<path transform="translate(0,0)" fill="rgb(65,204,210)" d="M 681.265 252.922 L 683.27 251.312 C 689.92 253.699 707.425 281.689 711.228 289.631 C 715.452 298.454 725.22 321.535 730.588 328.381 C 733.489 333.918 737.74 339.456 735.725 345.639 C 733.888 342.021 716.836 313.217 714.605 310.84 L 709.968 301.967 C 703.574 290.566 696.498 277.694 689.401 266.842 L 681.265 252.922 z"/>
<path transform="translate(0,0)" fill="rgb(16,92,105)" d="M 730.588 328.381 L 732.191 328.863 C 737.145 335.901 735.399 334.923 738.677 342.507 L 740.243 342.938 C 745.149 340.292 756.487 328.813 755.53 322.9 C 751.759 319.139 747.388 314.767 747.332 309.134 C 749.623 312.842 752.281 317.861 755.648 320.381 L 757.567 320.215 L 758.63 318.851 L 760.645 320.051 C 761.75 325.154 762.167 326.207 759.736 331.046 C 755.213 340.053 748.65 348.264 742.697 356.369 C 740.056 352.863 737.373 349.701 735.725 345.639 C 737.74 339.456 733.489 333.918 730.588 328.381 z"/>
<path transform="translate(0,0)" fill="rgb(59,182,196)" d="M 736.808 289.8 C 738.229 288.522 739.134 287.454 740.406 286.049 C 745.157 296.18 752.931 308.919 758.63 318.851 L 757.567 320.215 L 755.648 320.381 C 752.281 317.861 749.623 312.842 747.332 309.134 C 746.743 306.538 738.608 292.695 736.808 289.8 z"/>
<path transform="translate(0,0)" fill="rgb(65,204,210)" d="M 736.808 289.8 C 736.432 281.795 745.36 268.277 750.772 262.447 C 751.92 261.21 753.067 261.863 754.663 262.11 C 749.958 270.312 745.478 278.073 740.406 286.049 C 739.134 287.454 738.229 288.522 736.808 289.8 z"/>
<path transform="translate(0,0)" fill="rgb(65,204,210)" d="M 710.897 236.344 C 713.679 241.258 716.527 246.133 719.442 250.968 L 714.315 251.816 C 710.295 245.303 706.699 242.799 710.897 236.344 z"/>
<path transform="translate(0,0)" fill="rgb(50,213,199)" d="M 719.442 250.968 L 721.818 250.83 C 723.021 253.059 723.198 253.081 723.415 255.694 L 722.3 257.767 C 717.361 258.461 716.757 255.713 714.315 251.816 L 719.442 250.968 z"/>
<path transform="translate(0,0)" fill="rgb(95,35,23)" d="M 406.21 1172.23 C 418.401 1182.04 440.395 1201.59 451.744 1212.63 L 450.412 1213.37 C 441.982 1204.82 432.894 1198.47 424.401 1190.38 C 421.742 1191.78 421.7 1192.14 420.05 1194.8 C 419.208 1206.03 447.801 1218.4 448.827 1225.4 C 442.297 1221.29 395.988 1182.32 391.826 1177.19 C 397.795 1179.28 397.144 1180.05 401.623 1184.17 C 404.775 1187.06 409.386 1182.08 409.93 1178.23 C 407.966 1175.95 407.846 1175.7 406.532 1172.92 L 406.21 1172.23 z"/>
</svg>