<svg version="1.1" xmlns="http://www.w3.org/2000/svg" style="display: block;" viewBox="0 0 2048 739" width="1123" height="405" preserveAspectRatio="none">
<defs>
	<linearGradient id="Gradient1" gradientUnits="userSpaceOnUse" x1="1806.1" y1="224.42" x2="1756.97" y2="278.576">
		<stop class="stop0" offset="0" stop-opacity="1" stop-color="rgb(19,174,165)"/>
		<stop class="stop1" offset="1" stop-opacity="1" stop-color="rgb(57,205,206)"/>
	</linearGradient>
	<linearGradient id="Gradient2" gradientUnits="userSpaceOnUse" x1="1755.26" y1="504.304" x2="1751.8" y2="422.742">
		<stop class="stop0" offset="0" stop-opacity="1" stop-color="rgb(19,28,64)"/>
		<stop class="stop1" offset="1" stop-opacity="1" stop-color="rgb(28,71,106)"/>
	</linearGradient>
	<linearGradient id="Gradient3" gradientUnits="userSpaceOnUse" x1="1638.61" y1="509.382" x2="1675.27" y2="385.253">
		<stop class="stop0" offset="0" stop-opacity="1" stop-color="rgb(21,30,65)"/>
		<stop class="stop1" offset="1" stop-opacity="1" stop-color="rgb(26,84,115)"/>
	</linearGradient>
	<linearGradient id="Gradient4" gradientUnits="userSpaceOnUse" x1="1789.8" y1="338.034" x2="1805.16" y2="346.765">
		<stop class="stop0" offset="0" stop-opacity="1" stop-color="rgb(68,203,216)"/>
		<stop class="stop1" offset="1" stop-opacity="1" stop-color="rgb(42,146,170)"/>
	</linearGradient>
	<linearGradient id="Gradient5" gradientUnits="userSpaceOnUse" x1="1643.35" y1="301.508" x2="1655.79" y2="211.136">
		<stop class="stop0" offset="0" stop-opacity="1" stop-color="rgb(31,141,150)"/>
		<stop class="stop1" offset="1" stop-opacity="1" stop-color="rgb(23,180,171)"/>
	</linearGradient>
	<linearGradient id="Gradient6" gradientUnits="userSpaceOnUse" x1="1945.12" y1="297.318" x2="1929.38" y2="195.405">
		<stop class="stop0" offset="0" stop-opacity="1" stop-color="rgb(3,117,148)"/>
		<stop class="stop1" offset="1" stop-opacity="1" stop-color="rgb(0,166,188)"/>
	</linearGradient>
	<linearGradient id="Gradient7" gradientUnits="userSpaceOnUse" x1="1915.56" y1="503.164" x2="1984.13" y2="209.297">
		<stop class="stop0" offset="0" stop-opacity="1" stop-color="rgb(0,60,85)"/>
		<stop class="stop1" offset="1" stop-opacity="1" stop-color="rgb(0,91,118)"/>
	</linearGradient>
	<linearGradient id="Gradient8" gradientUnits="userSpaceOnUse" x1="819.109" y1="447.943" x2="822.042" y2="198.425">
		<stop class="stop0" offset="0" stop-opacity="1" stop-color="rgb(2,110,139)"/>
		<stop class="stop1" offset="1" stop-opacity="1" stop-color="rgb(1,161,184)"/>
	</linearGradient>
	<linearGradient id="Gradient9" gradientUnits="userSpaceOnUse" x1="794.95" y1="494.799" x2="823.751" y2="201.771">
		<stop class="stop0" offset="0" stop-opacity="1" stop-color="rgb(0,54,77)"/>
		<stop class="stop1" offset="1" stop-opacity="1" stop-color="rgb(0,98,125)"/>
	</linearGradient>
	<linearGradient id="Gradient10" gradientUnits="userSpaceOnUse" x1="1424.11" y1="415.93" x2="1352.26" y2="427.012">
		<stop class="stop0" offset="0" stop-opacity="1" stop-color="rgb(0,118,139)"/>
		<stop class="stop1" offset="1" stop-opacity="1" stop-color="rgb(12,145,178)"/>
	</linearGradient>
	<linearGradient id="Gradient11" gradientUnits="userSpaceOnUse" x1="1371.9" y1="273.698" x2="1386.76" y2="284.799">
		<stop class="stop0" offset="0" stop-opacity="1" stop-color="rgb(15,144,161)"/>
		<stop class="stop1" offset="1" stop-opacity="1" stop-color="rgb(0,91,128)"/>
	</linearGradient>
	<linearGradient id="Gradient12" gradientUnits="userSpaceOnUse" x1="1242.27" y1="287.825" x2="1268" y2="203.991">
		<stop class="stop0" offset="0" stop-opacity="1" stop-color="rgb(2,134,159)"/>
		<stop class="stop1" offset="1" stop-opacity="1" stop-color="rgb(1,165,187)"/>
	</linearGradient>
	<linearGradient id="Gradient13" gradientUnits="userSpaceOnUse" x1="1311.52" y1="495.161" x2="1308.52" y2="211.956">
		<stop class="stop0" offset="0" stop-opacity="1" stop-color="rgb(1,62,87)"/>
		<stop class="stop1" offset="1" stop-opacity="1" stop-color="rgb(0,91,118)"/>
	</linearGradient>
	<linearGradient id="Gradient14" gradientUnits="userSpaceOnUse" x1="991.917" y1="493.856" x2="1004.04" y2="234.142">
		<stop class="stop0" offset="0" stop-opacity="1" stop-color="rgb(4,82,111)"/>
		<stop class="stop1" offset="1" stop-opacity="1" stop-color="rgb(4,139,168)"/>
	</linearGradient>
	<linearGradient id="Gradient15" gradientUnits="userSpaceOnUse" x1="1079.88" y1="246.293" x2="1079.14" y2="198.707">
		<stop class="stop0" offset="0" stop-opacity="1" stop-color="rgb(5,114,146)"/>
		<stop class="stop1" offset="1" stop-opacity="1" stop-color="rgb(0,169,189)"/>
	</linearGradient>
	<linearGradient id="Gradient16" gradientUnits="userSpaceOnUse" x1="1064.42" y1="500.429" x2="1095.55" y2="207.886">
		<stop class="stop0" offset="0" stop-opacity="1" stop-color="rgb(0,59,83)"/>
		<stop class="stop1" offset="1" stop-opacity="1" stop-color="rgb(0,92,119)"/>
	</linearGradient>
	<linearGradient id="Gradient17" gradientUnits="userSpaceOnUse" x1="331.053" y1="220.376" x2="354.247" y2="191.724">
		<stop class="stop0" offset="0" stop-opacity="1" stop-color="rgb(17,35,70)"/>
		<stop class="stop1" offset="1" stop-opacity="1" stop-color="rgb(29,76,107)"/>
	</linearGradient>
	<linearGradient id="Gradient18" gradientUnits="userSpaceOnUse" x1="96.4654" y1="424.686" x2="139.036" y2="404.973">
		<stop class="stop0" offset="0" stop-opacity="1" stop-color="rgb(187,36,5)"/>
		<stop class="stop1" offset="1" stop-opacity="1" stop-color="rgb(68,33,26)"/>
	</linearGradient>
	<linearGradient id="Gradient19" gradientUnits="userSpaceOnUse" x1="524.407" y1="262.365" x2="462.735" y2="256.145">
		<stop class="stop0" offset="0" stop-opacity="1" stop-color="rgb(6,105,129)"/>
		<stop class="stop1" offset="1" stop-opacity="1" stop-color="rgb(0,78,102)"/>
	</linearGradient>
	<linearGradient id="Gradient20" gradientUnits="userSpaceOnUse" x1="317.826" y1="578.872" x2="312.452" y2="207.203">
		<stop class="stop0" offset="0" stop-opacity="1" stop-color="rgb(0,78,102)"/>
		<stop class="stop1" offset="1" stop-opacity="1" stop-color="rgb(0,145,162)"/>
	</linearGradient>
	<linearGradient id="Gradient21" gradientUnits="userSpaceOnUse" x1="279.834" y1="375.559" x2="584.191" y2="407.403">
		<stop class="stop0" offset="0" stop-opacity="1" stop-color="rgb(48,33,35)"/>
		<stop class="stop1" offset="1" stop-opacity="1" stop-color="rgb(5,47,68)"/>
	</linearGradient>
	<linearGradient id="Gradient22" gradientUnits="userSpaceOnUse" x1="-3.91782" y1="184.554" x2="442.644" y2="442.76">
		<stop class="stop0" offset="0" stop-opacity="1" stop-color="rgb(226,74,0)"/>
		<stop class="stop1" offset="1" stop-opacity="1" stop-color="rgb(120,37,13)"/>
	</linearGradient>
	<linearGradient id="Gradient23" gradientUnits="userSpaceOnUse" x1="77.5813" y1="466.564" x2="601.206" y2="227.558">
		<stop class="stop0" offset="0" stop-opacity="1" stop-color="rgb(16,24,28)"/>
		<stop class="stop1" offset="1" stop-opacity="1" stop-color="rgb(0,33,51)"/>
	</linearGradient>
</defs>
<path transform="translate(0,0)" fill="url(#Gradient23)" d="M 307.534 3.56912 L 314.184 8.7392 C 321.189 14.0613 330.624 20.3252 336.974 25.4079 C 345.247 29.7257 356.547 37.2313 364.716 42.3384 L 401.838 61.4786 C 468.136 91.677 538.36 112.381 610.437 122.98 C 610.49 153.841 610.049 184.701 609.113 215.548 C 609.713 233.811 609.414 252.847 610.183 270.456 C 613.342 342.784 612.907 408.881 575.288 473.463 C 558.103 502.965 541.891 530.686 517.447 556.636 C 517.264 556.83 517.081 557.022 516.895 557.213 C 502.493 577.145 476.852 599.893 458.511 616.729 C 427.588 645.116 396.239 670.035 362.793 695.329 C 347.059 707.228 330.289 718.651 314.958 730.563 C 312.158 732.432 311.629 732.78 308.373 733.51 C 300.356 731.271 221.195 670.76 215.072 664.184 C 162.044 624.809 104.485 567.727 64.3195 515.417 C -8.39295 420.72 4.10038 341.747 4.00441 229.68 L 3.92519 159.332 C 3.90632 151.313 3.35334 130.488 4.37839 123.334 C 113.717 103.938 220.084 77.4411 307.534 3.56912 z"/>
<path transform="translate(0,0)" fill="url(#Gradient22)" d="M 307.534 3.56912 L 314.184 8.7392 C 311.612 12.7486 307.472 16.8746 307.333 20.7821 L 308.603 22.4588 C 308.949 28.8529 309.667 46.5961 310.612 51.9738 C 302.752 53.5847 275.241 72.6418 266.16 77.7936 C 214.953 106.841 163.862 125.847 107.433 141.783 C 87.3867 147.444 62.5126 152.585 43.6002 158.428 C 42.5392 187.621 42.924 218.882 43.0023 247.741 C 43.143 299.54 37.2709 352.412 50.525 402.792 C 51.4156 406.177 54.3516 415.402 54.6366 418.379 C 53.2632 429.852 75.0896 468.577 82.0951 479.34 C 125.124 545.45 187.316 598.592 249.511 646.08 C 267.648 659.928 286.596 671.629 303.956 685.01 C 306.456 685.862 307.197 686.588 309.463 686.093 L 311.293 686.427 C 312.362 693.513 307.366 696.668 302.544 701.294 C 303.61 709.975 303.511 716.256 303.466 724.954 C 308.12 727.701 310.255 723.807 314.541 727.485 L 314.958 730.563 C 312.158 732.432 311.629 732.78 308.373 733.51 C 300.356 731.271 221.195 670.76 215.072 664.184 C 162.044 624.809 104.485 567.727 64.3195 515.417 C -8.39295 420.72 4.10038 341.747 4.00441 229.68 L 3.92519 159.332 C 3.90632 151.313 3.35334 130.488 4.37839 123.334 C 113.717 103.938 220.084 77.4411 307.534 3.56912 z"/>
<path transform="translate(0,0)" fill="rgb(224,78,0)" d="M 4.37839 123.334 C 7.31858 145.245 4.19003 182.765 5.74038 206.597 C 5.97878 198.336 5.2243 149.357 6.34964 145.579 L 8.08578 144.085 C 11.4093 144.695 16.1858 147.253 19.3765 148.782 C 20.8502 156.029 20.1924 170.592 20.1346 178.632 L 19.8301 227.093 C 19.8091 232.073 19.5576 244.943 20.8788 249.249 C 22.2139 255.414 21.5251 268.662 21.5536 275.427 C 21.7074 311.94 19.8776 347.907 24.4589 384.283 C 28.2645 412.739 37.2023 440.269 50.8382 465.533 C 93.4034 542.916 199.406 633.923 271.101 685.272 C 271.547 685.591 272.551 686.171 273.035 686.448 C 279.739 677.509 296.426 690.12 303.956 685.01 C 306.456 685.862 307.197 686.588 309.463 686.093 L 311.293 686.427 C 312.362 693.513 307.366 696.668 302.544 701.294 C 303.61 709.975 303.511 716.256 303.466 724.954 C 308.12 727.701 310.255 723.807 314.541 727.485 L 314.958 730.563 C 312.158 732.432 311.629 732.78 308.373 733.51 C 300.356 731.271 221.195 670.76 215.072 664.184 C 162.044 624.809 104.485 567.727 64.3195 515.417 C -8.39295 420.72 4.10038 341.747 4.00441 229.68 L 3.92519 159.332 C 3.90632 151.313 3.35334 130.488 4.37839 123.334 z"/>
<path transform="translate(0,0)" fill="rgb(104,37,20)" d="M 215.072 664.184 C 224.079 667.096 285.487 716.876 299.731 725.51 C 300.971 722.918 301.503 710.281 301.544 706.679 C 296.576 702.293 278.862 690.118 273.035 686.448 C 279.739 677.509 296.426 690.12 303.956 685.01 C 306.456 685.862 307.197 686.588 309.463 686.093 L 311.293 686.427 C 312.362 693.513 307.366 696.668 302.544 701.294 C 303.61 709.975 303.511 716.256 303.466 724.954 C 308.12 727.701 310.255 723.807 314.541 727.485 L 314.958 730.563 C 312.158 732.432 311.629 732.78 308.373 733.51 C 300.356 731.271 221.195 670.76 215.072 664.184 z"/>
<path transform="translate(0,0)" fill="rgb(253,163,1)" d="M 307.534 3.56912 L 314.184 8.7392 C 311.612 12.7486 307.472 16.8746 307.333 20.7821 C 294.465 32.8252 276.146 43.947 261.135 52.9442 C 202.429 88.132 137.48 113.057 70.4391 126.746 C 54.9506 129.909 36.5723 134.489 20.9437 136.255 C 20.7753 170.968 19.4018 215.496 20.8788 249.249 C 19.5576 244.943 19.8091 232.073 19.8301 227.093 L 20.1346 178.632 C 20.1924 170.592 20.8502 156.029 19.3765 148.782 C 16.1858 147.253 11.4093 144.695 8.08578 144.085 L 6.34964 145.579 C 5.2243 149.357 5.97878 198.336 5.74038 206.597 C 4.19003 182.765 7.31858 145.245 4.37839 123.334 C 113.717 103.938 220.084 77.4411 307.534 3.56912 z"/>
<path transform="translate(0,0)" fill="url(#Gradient21)" d="M 314.184 8.7392 C 321.189 14.0613 330.624 20.3252 336.974 25.4079 C 345.247 29.7257 356.547 37.2313 364.716 42.3384 L 401.838 61.4786 C 468.136 91.677 538.36 112.381 610.437 122.98 C 610.49 153.841 610.049 184.701 609.113 215.548 C 609.713 233.811 609.414 252.847 610.183 270.456 C 613.342 342.784 612.907 408.881 575.288 473.463 C 558.103 502.965 541.891 530.686 517.447 556.636 C 517.264 556.83 517.081 557.022 516.895 557.213 C 502.493 577.145 476.852 599.893 458.511 616.729 C 427.588 645.116 396.239 670.035 362.793 695.329 C 347.059 707.228 330.289 718.651 314.958 730.563 L 314.541 727.485 C 310.255 723.807 308.12 727.701 303.466 724.954 C 303.511 716.256 303.61 709.975 302.544 701.294 C 307.366 696.668 312.362 693.513 311.293 686.427 L 309.463 686.093 C 311.727 683.795 325.804 673.861 328.862 671.657 C 341.247 662.769 353.541 653.754 365.743 644.615 C 448.803 582.198 548.395 495.186 569.046 388.205 C 570.786 379.194 573.026 365.983 572.28 356.972 C 571.783 353.512 571.776 339.738 572.042 336.023 C 573.817 311.204 569.007 277.48 572.246 253.757 C 573.314 223.004 572.471 186.582 572.428 155.41 C 491.221 137.724 425.665 119.098 352.287 76.9119 C 339.91 69.7956 323.279 60.8945 312.517 51.9654 L 310.612 51.9738 C 309.667 46.5961 308.949 28.8529 308.603 22.4588 L 307.333 20.7821 C 307.472 16.8746 311.612 12.7486 314.184 8.7392 z"/>
<path transform="translate(0,0)" fill="rgb(4,77,104)" d="M 591.144 228.874 C 591.856 237.389 592.173 246.125 592.584 254.673 C 594.035 250.596 591.468 226.323 593.829 222.872 C 598.94 222.023 602.657 220.611 606.787 224.085 C 607.424 226.352 607.148 245.32 607.286 249.643 C 608.293 240.458 607.363 223.093 609.036 215.872 L 609.113 215.548 C 609.713 233.811 609.414 252.847 610.183 270.456 C 613.342 342.784 612.907 408.881 575.288 473.463 C 558.103 502.965 541.891 530.686 517.447 556.636 C 517.264 556.83 517.081 557.022 516.895 557.213 C 510.721 561.147 481.86 592.529 473.235 600.559 C 442.872 628.347 411.265 654.745 378.511 679.67 C 374.385 682.754 324.924 717.882 324.069 717.954 C 322.338 714.532 324.259 705.606 324.875 701.396 C 364.777 667.297 407.045 636.201 446.748 601.729 C 520.816 537.42 589.296 453.032 591.666 350.382 C 592.576 310.977 588.197 267.694 591.144 228.874 z"/>
<path transform="translate(0,0)" fill="rgb(16,152,176)" d="M 364.716 42.3384 L 401.838 61.4786 C 468.136 91.677 538.36 112.381 610.437 122.98 C 610.49 153.841 610.049 184.701 609.113 215.548 L 609.036 215.872 C 607.363 223.093 608.293 240.458 607.286 249.643 C 607.148 245.32 607.424 226.352 606.787 224.085 C 602.657 220.611 598.94 222.023 593.829 222.872 C 591.468 226.323 594.035 250.596 592.584 254.673 C 592.173 246.125 591.856 237.389 591.144 228.874 C 592.557 201.006 590.695 166.946 591.582 137.648 C 579.052 135.989 560.53 131.521 547.853 128.652 C 495.791 116.869 436.435 97.0982 389.336 71.5315 C 384.102 70.0241 361.98 56.9452 357.074 53.579 C 368.178 52.4402 362.588 60.5125 377.061 51.0217 C 372.221 48.7927 366.898 47.0446 364.716 42.3384 z"/>
<path transform="translate(0,0)" fill="rgb(34,154,156)" d="M 364.716 42.3384 L 401.838 61.4786 C 397.924 63.09 387.043 56.3697 382.664 54.1215 C 379.145 56.2618 375.869 57.4208 374.14 60.5939 C 375.747 65.4199 384.805 67.1925 389.849 69.8269 C 389.684 71.0491 389.949 70.8176 389.336 71.5315 C 384.102 70.0241 361.98 56.9452 357.074 53.579 C 368.178 52.4402 362.588 60.5125 377.061 51.0217 C 372.221 48.7927 366.898 47.0446 364.716 42.3384 z"/>
<path transform="translate(0,0)" fill="rgb(21,128,155)" d="M 572.28 356.972 C 578.483 374.061 560.18 430.983 551.561 448.792 C 511.882 530.776 433.588 595.868 362.032 650.296 C 345.928 662.545 328.091 675.712 311.293 686.427 L 309.463 686.093 C 311.727 683.795 325.804 673.861 328.862 671.657 C 341.247 662.769 353.541 653.754 365.743 644.615 C 448.803 582.198 548.395 495.186 569.046 388.205 C 570.786 379.194 573.026 365.983 572.28 356.972 z"/>
<path transform="translate(0,0)" fill="rgb(129,152,137)" d="M 314.184 8.7392 C 321.189 14.0613 330.624 20.3252 336.974 25.4079 C 345.247 29.7257 356.547 37.2313 364.716 42.3384 C 366.898 47.0446 372.221 48.7927 377.061 51.0217 C 362.588 60.5125 368.178 52.4402 357.074 53.579 C 348.477 49.5373 339.649 42.2589 330.636 37.6846 L 326.191 33.6423 C 324.583 33.0901 311.546 24.1043 308.603 22.4588 L 307.333 20.7821 C 307.472 16.8746 311.612 12.7486 314.184 8.7392 z"/>
<path transform="translate(0,0)" fill="rgb(206,147,84)" d="M 314.184 8.7392 C 321.189 14.0613 330.624 20.3252 336.974 25.4079 C 334.448 28.4914 326.753 29.8345 323.502 28.6576 C 324.38 31.1998 324.32 30.5269 327.138 32.293 L 326.191 33.6423 C 324.583 33.0901 311.546 24.1043 308.603 22.4588 L 307.333 20.7821 C 307.472 16.8746 311.612 12.7486 314.184 8.7392 z"/>
<path transform="translate(0,0)" fill="rgb(21,128,155)" d="M 312.517 51.9654 C 315.269 51.5691 318.606 53.9572 321.185 55.4036 C 377.365 90.9742 438.427 118.172 502.448 136.142 C 516.172 140.088 565.978 149.433 573.558 153.514 C 573.553 165.643 574.491 250.557 572.246 253.757 C 573.314 223.004 572.471 186.582 572.428 155.41 C 491.221 137.724 425.665 119.098 352.287 76.9119 C 339.91 69.7956 323.279 60.8945 312.517 51.9654 z"/>
<path transform="translate(0,0)" fill="rgb(104,37,20)" d="M 308.603 22.4588 C 311.546 24.1043 324.583 33.0901 326.191 33.6423 L 330.636 37.6846 C 325.025 37.8424 324.075 33.5281 321.044 34.2361 C 318.276 39.3034 316.723 43.6655 314.682 49.0707 C 316.378 52.0821 317.622 49.3547 321.185 55.4036 C 318.606 53.9572 315.269 51.5691 312.517 51.9654 L 310.612 51.9738 C 309.667 46.5961 308.949 28.8529 308.603 22.4588 z"/>
<path transform="translate(0,0)" fill="rgb(219,131,46)" d="M 303.956 685.01 C 286.596 671.629 267.648 659.928 249.511 646.08 C 187.316 598.592 125.124 545.45 82.0951 479.34 C 75.0896 468.577 53.2632 429.852 54.6366 418.379 C 63.6123 440.508 73.0001 461.551 86.3991 481.426 C 142.187 564.18 228.309 630.33 309.463 686.093 C 307.197 686.588 306.456 685.862 303.956 685.01 z"/>
<path transform="translate(0,0)" fill="url(#Gradient20)" d="M 423.111 191.568 C 454.147 192.401 485.45 191.608 516.514 192.061 C 522.463 192.148 528.479 191.889 534.404 192.424 L 535.078 194.21 C 527.115 210.067 517.372 226.764 508.893 242.72 L 446.562 359.76 L 416.754 415.281 C 414.025 420.345 405.357 437.152 402.596 441.007 C 388.543 466.789 374.184 492.409 360.021 518.131 C 345.55 544.413 331.321 575.309 313.08 598.881 C 314.304 602.348 310.273 611.401 308.881 616.009 C 300.708 603.542 288.156 577.753 280.377 563.361 C 260.072 526.564 240.168 489.547 220.671 452.315 C 189.617 394.128 159.325 335.536 129.803 276.557 C 118.358 253.807 103.546 227.903 93.5837 204.913 L 87.142 193.249 C 103.301 193.021 119.461 193.009 135.62 193.211 C 145.255 193.173 196.948 192.505 202.529 193.633 C 204.495 195.712 204.75 196.112 206.03 198.675 C 209.862 206.908 217.433 220.853 220.35 228.087 L 221.456 229.987 C 226.232 239.272 240.196 265.064 243.49 273.671 C 247.572 279.624 250.771 287.021 254.297 293.372 C 274.032 328.927 291.182 367.094 311.277 402.31 C 313.179 396.559 319.107 386.776 322.349 381.302 C 323.799 376.954 333.798 358.387 336.536 354.669 C 340.354 345.334 355.843 317.469 361.454 306.988 C 378.399 275.336 395.25 242.263 412.625 210.976 C 413.292 208.736 421.82 193.754 423.111 191.568 z"/>
<path transform="translate(0,0)" fill="rgb(22,171,183)" d="M 423.111 191.568 C 454.147 192.401 485.45 191.608 516.514 192.061 C 522.463 192.148 528.479 191.889 534.404 192.424 L 535.078 194.21 C 526.343 195.317 517.393 202.895 509.98 208.16 L 508.741 207.614 C 499.833 208.764 438.779 208.646 431.833 207.172 C 425.31 221.655 417.528 235.744 410.341 249.935 L 359.034 349.186 L 328.348 407.296 C 324.299 414.889 314.478 433.771 309.727 440.488 C 296.172 417.347 284.244 389.992 271.361 365.77 C 258.787 342.161 246.381 318.464 234.144 294.679 C 231.116 288.844 218.962 266.177 217.107 260.784 L 219.009 260.357 C 220.066 255.707 203.928 224.946 200.133 220.095 C 196.905 216.23 194.307 212.762 191.34 208.694 C 196.3 205.179 199.705 200.309 206.03 198.675 C 209.862 206.908 217.433 220.853 220.35 228.087 L 221.456 229.987 C 226.232 239.272 240.196 265.064 243.49 273.671 C 247.572 279.624 250.771 287.021 254.297 293.372 C 274.032 328.927 291.182 367.094 311.277 402.31 C 313.179 396.559 319.107 386.776 322.349 381.302 C 323.799 376.954 333.798 358.387 336.536 354.669 C 340.354 345.334 355.843 317.469 361.454 306.988 C 378.399 275.336 395.25 242.263 412.625 210.976 C 413.292 208.736 421.82 193.754 423.111 191.568 z"/>
<path transform="translate(0,0)" fill="rgb(54,193,201)" d="M 412.625 210.976 C 413.051 218.401 340.452 353.198 336.536 354.669 C 340.354 345.334 355.843 317.469 361.454 306.988 C 378.399 275.336 395.25 242.263 412.625 210.976 z"/>
<path transform="translate(0,0)" fill="rgb(34,154,156)" d="M 206.03 198.675 C 209.862 206.908 217.433 220.853 220.35 228.087 C 213.408 224.24 214.892 214.899 208.091 213.104 C 204.479 213.884 202.5 217.147 200.133 220.095 C 196.905 216.23 194.307 212.762 191.34 208.694 C 196.3 205.179 199.705 200.309 206.03 198.675 z"/>
<path transform="translate(0,0)" fill="rgb(77,207,233)" d="M 431.833 207.172 C 438.742 205.095 506.071 204.538 508.741 207.614 C 499.833 208.764 438.779 208.646 431.833 207.172 z"/>
<path transform="translate(0,0)" fill="rgb(54,193,201)" d="M 243.49 273.671 L 241.555 273.269 C 235.506 265.55 226.989 247.342 221.87 238.214 C 219.809 234.539 220.331 233.29 221.456 229.987 C 226.232 239.272 240.196 265.064 243.49 273.671 z"/>
<path transform="translate(0,0)" fill="rgb(54,193,201)" d="M 322.349 381.302 C 322.621 385.642 315.275 401.126 311.507 403.23 L 311.277 402.31 C 313.179 396.559 319.107 386.776 322.349 381.302 z"/>
<path transform="translate(0,0)" fill="rgb(224,78,0)" d="M 87.142 193.249 C 103.301 193.021 119.461 193.009 135.62 193.211 L 143.651 194.41 L 143.552 194.919 L 132.127 196.18 C 130.823 198.12 131.269 204.266 131.275 207.003 L 141.318 207.181 L 129.638 208.136 C 126.201 208.149 118.71 207.962 115.598 208.257 C 123.431 226.942 133.149 245.783 142.114 264.036 C 162.183 304.477 182.743 344.673 203.788 384.616 C 238.53 451.245 271.971 518.449 307.967 584.649 C 309.141 588.303 311.367 595.588 313.08 598.881 C 314.304 602.348 310.273 611.401 308.881 616.009 C 300.708 603.542 288.156 577.753 280.377 563.361 C 260.072 526.564 240.168 489.547 220.671 452.315 C 189.617 394.128 159.325 335.536 129.803 276.557 C 118.358 253.807 103.546 227.903 93.5837 204.913 L 87.142 193.249 z"/>
<path transform="translate(0,0)" fill="rgb(219,131,46)" d="M 87.142 193.249 C 103.301 193.021 119.461 193.009 135.62 193.211 L 143.651 194.41 L 143.552 194.919 L 132.127 196.18 C 130.823 198.12 131.269 204.266 131.275 207.003 L 141.318 207.181 L 129.638 208.136 C 126.201 208.149 118.71 207.962 115.598 208.257 C 112.429 202.736 110.867 203.531 109.015 200.255 C 110.025 197.552 109.258 198.455 112.082 196.987 C 115.156 199.558 114.509 199.879 115.729 204.197 C 118.242 205.864 117.573 205.355 121.119 205.207 L 121.984 203.836 C 120.884 201.78 120.006 199.909 119.374 197.657 C 115.091 193.816 97.8672 195.396 90.9837 195.49 C 92.7497 198.892 94.3796 201.147 93.5837 204.913 L 87.142 193.249 z"/>
<path transform="translate(0,0)" fill="rgb(22,51,71)" d="M 509.98 208.16 C 517.393 202.895 526.343 195.317 535.078 194.21 C 527.115 210.067 517.372 226.764 508.893 242.72 L 446.562 359.76 L 416.754 415.281 C 414.025 420.345 405.357 437.152 402.596 441.007 C 388.543 466.789 374.184 492.409 360.021 518.131 C 345.55 544.413 331.321 575.309 313.08 598.881 C 311.367 595.588 309.141 588.303 307.967 584.649 C 311.093 580.876 325.037 554.579 328.201 548.874 L 373.025 467.731 C 379.095 456.495 394.517 426.514 401.304 416.907 C 408.671 399.721 427.723 366.716 437.1 349.128 C 462.259 302.591 486.556 255.594 509.98 208.16 z"/>
<path transform="translate(0,0)" fill="url(#Gradient19)" d="M 509.98 208.16 C 517.393 202.895 526.343 195.317 535.078 194.21 C 527.115 210.067 517.372 226.764 508.893 242.72 L 446.562 359.76 L 416.754 415.281 C 414.025 420.345 405.357 437.152 402.596 441.007 L 401.867 440.275 C 405.069 432.37 412.823 419.655 417.307 411.258 L 446.806 355.168 C 451.516 346.289 454.009 344.936 457.922 334.987 L 457.064 334.078 C 457.209 331.172 470.694 322.418 456.827 315.882 C 452.515 318.515 411.744 408.489 401.304 416.907 C 408.671 399.721 427.723 366.716 437.1 349.128 C 462.259 302.591 486.556 255.594 509.98 208.16 z"/>
<path transform="translate(0,0)" fill="rgb(206,147,84)" d="M 135.62 193.211 C 145.255 193.173 196.948 192.505 202.529 193.633 C 204.495 195.712 204.75 196.112 206.03 198.675 C 199.705 200.309 196.3 205.179 191.34 208.694 L 189.663 209.275 C 175.505 209.597 142.652 209.511 129.638 208.136 L 141.318 207.181 L 131.275 207.003 C 131.269 204.266 130.823 198.12 132.127 196.18 L 143.552 194.919 L 143.651 194.41 L 135.62 193.211 z"/>
<path transform="translate(0,0)" fill="rgb(54,193,201)" d="M 191.34 208.694 C 194.307 212.762 196.905 216.23 200.133 220.095 C 203.928 224.946 220.066 255.707 219.009 260.357 L 217.107 260.784 C 212.179 249.253 195.958 218.378 189.663 209.275 L 191.34 208.694 z"/>
<path transform="translate(0,0)" fill="rgb(22,51,71)" d="M 272.1 141.878 C 275.271 141.955 287.418 142.003 289.757 142.903 C 288.529 145.418 285.861 150.518 285.067 152.956 L 282.282 154.381 C 280.082 159.259 277.784 162.948 275.02 167.521 C 277.113 169.64 280.01 172.02 280.005 175.031 C 288.398 187.475 294.364 198.166 301.889 211.051 L 303.018 210.52 C 305.984 212.439 313.376 227.529 315.313 231.221 C 309.559 231.635 301.309 231.445 295.37 231.49 C 291.833 227.42 291.237 223.019 285.303 221.636 C 284.88 222.209 283.426 227.959 282.881 229.524 C 278.969 232.852 271.008 232.43 267.748 229.075 C 262.367 217.486 272.631 212.37 275.431 202.274 C 276.209 199.469 270.919 193.897 269.648 190.571 C 268.349 187.173 269.493 185.85 267.37 183.481 C 266.584 186.024 265.498 188.433 263.722 190.419 C 259.903 194.688 259.414 202.384 252.918 202.198 C 248.478 199.131 244.666 191.28 246.008 185.834 C 248.221 183.386 251.112 177.443 252.805 174.243 C 245.241 173.991 236.262 175.619 233.332 167.161 C 233.707 163.369 234.426 162.594 236.66 159.424 C 242.06 158.545 256.274 158.532 262.448 158.4 L 270.553 144.867 L 272.1 141.878 z"/>
<path transform="translate(0,0)" fill="rgb(19,102,125)" d="M 272.1 141.878 C 275.271 141.955 287.418 142.003 289.757 142.903 C 288.529 145.418 285.861 150.518 285.067 152.956 L 282.282 154.381 C 280.082 159.259 277.784 162.948 275.02 167.521 C 270.215 175.889 264.042 186.715 258.296 194.494 C 257.923 196.732 255.453 199.794 254.047 201.782 C 250.829 196.364 247.916 191.899 246.008 185.834 C 248.221 183.386 251.112 177.443 252.805 174.243 C 245.241 173.991 236.262 175.619 233.332 167.161 C 233.707 163.369 234.426 162.594 236.66 159.424 C 242.06 158.545 256.274 158.532 262.448 158.4 L 270.553 144.867 L 272.1 141.878 z"/>
<path transform="translate(0,0)" fill="rgb(16,152,176)" d="M 258.296 194.494 C 258.907 189.233 269.327 168.155 271.972 162.319 C 274.068 157.694 277.996 158.294 281.627 153.372 L 281.814 153.113 L 282.282 154.381 C 280.082 159.259 277.784 162.948 275.02 167.521 C 270.215 175.889 264.042 186.715 258.296 194.494 z"/>
<path transform="translate(0,0)" fill="rgb(16,152,176)" d="M 270.553 144.867 C 271.418 148.86 269.227 152.093 267.056 155.445 C 265.87 157.263 264.649 159.058 263.394 160.831 C 256.348 160.817 243.092 161.124 236.66 159.424 C 242.06 158.545 256.274 158.532 262.448 158.4 L 270.553 144.867 z"/>
<path transform="translate(0,0)" fill="rgb(4,77,104)" d="M 267.292 223.177 C 269.432 218.719 273.889 208.061 277.263 205.343 L 278.338 204.992 C 277.852 210.84 265.618 217.689 270.556 227.11 C 274.186 229.26 272.649 228.949 276.774 228.619 C 280.249 226.831 285.328 216.606 287.607 212.627 C 296.467 226.401 293.003 228.479 310.358 228.542 C 307.965 224.737 304.997 220.278 302.812 216.439 L 303.914 214.988 C 306.967 219.437 309.466 224.745 311.9 229.6 L 295.659 229.992 C 293.224 225.915 290.435 220.946 287.867 217.048 C 282.143 224.439 275.827 238.744 267.292 223.177 z"/>
<path transform="translate(0,0)" fill="rgb(71,166,212)" d="M 302.812 216.439 C 297.393 205.238 282.981 188.879 280.005 175.031 C 288.398 187.475 294.364 198.166 301.889 211.051 L 303.914 214.988 L 302.812 216.439 z"/>
<path transform="translate(0,0)" fill="url(#Gradient18)" d="M 75.4479 215.823 C 78.9098 219.218 75.4355 240.328 76.0031 246.473 C 76.3093 249.789 74.3991 252.634 74.295 256.515 C 74.1783 261.257 74.7781 265.989 76.0743 270.552 L 77.3025 270.747 C 78.2661 252.532 79.0337 243.832 78.9489 225.011 L 79.7516 224.359 C 80.9526 227.416 81.9168 232.408 81.6632 235.63 C 70.842 373.106 93.4256 454.475 199.592 547.403 C 203.485 550.719 207.346 554.072 211.174 557.463 C 206.679 558.833 199.691 547.256 193.541 544.309 L 192.419 546.095 C 194.065 549.113 202.633 555.469 205.973 558.29 L 205.522 559.115 C 201.438 557.07 192.951 549.271 189.019 545.993 C 160.426 522.158 134.347 494.267 114.527 462.731 C 75.0208 399.87 69.8851 333.78 73.2104 261.445 C 73.8451 247.638 72.3787 228.721 75.4479 215.823 z"/>
<path transform="translate(0,0)" fill="rgb(54,108,146)" d="M 282.282 154.381 L 285.067 152.956 L 284.821 153.589 C 282.964 158.243 277.988 164.185 277.812 167.371 C 280.63 171.934 292.01 191.295 294.621 193.484 C 308.734 192.585 353.165 190.678 365.746 192.918 C 366.79 197.542 364.709 199.617 362.695 203.423 C 358.456 211.432 352.103 210.01 344.109 210.386 C 348.357 217.919 354.205 224.592 344.487 230.047 C 342.245 231.306 341.2 231.672 338.645 231.385 C 330.017 227.893 328.835 213.413 322.046 209.872 C 320.002 208.806 310.768 210.778 304.409 208.348 L 303.018 210.52 L 301.889 211.051 C 294.364 198.166 288.398 187.475 280.005 175.031 C 280.01 172.02 277.113 169.64 275.02 167.521 C 277.784 162.948 280.082 159.259 282.282 154.381 z"/>
<path transform="translate(0,0)" fill="url(#Gradient17)" d="M 362.71 194.887 C 363.059 194.647 364.017 194.507 364.496 194.404 C 364.704 197.122 359.875 205.634 358.29 209 C 353.947 208.893 347.085 208.318 343.301 209.806 C 341.924 213.616 353.394 222.691 344.03 228.254 C 341.121 228.505 339.023 228.97 336.426 227.668 C 334.563 223.627 326.161 209.039 326.466 206.76 C 331.386 205.308 336.411 204.136 340.754 201.457 L 340.992 199.391 C 346.155 194.413 354.361 195.911 362.71 194.887 z"/>
<path transform="translate(0,0)" fill="rgb(19,102,125)" d="M 349.62 150.255 C 352.178 145.861 358.964 133.203 362.462 131.141 L 364.728 132.395 C 366.676 136.963 368.459 140.219 370.854 144.557 C 368.594 148.741 366.404 153.383 363.169 156.808 C 367.542 159.721 374.021 157.516 379.827 159.787 C 382.327 163.033 382.829 163.733 383.148 167.795 C 378.991 178.99 359.497 170.913 352.327 175.822 C 349.346 181.582 347.798 185.614 342.312 189.259 C 340.592 189.534 338.804 189.857 337.077 190.025 C 333.045 190.358 331.693 191.11 328.316 189.528 C 327.762 186.042 328.727 185.429 330.283 181.866 C 333.604 169.464 342.462 171.806 335.012 157.561 C 340.487 152.165 342.791 150.441 344.663 143.008 C 345.737 144.626 348.492 148.998 349.62 150.255 z"/>
<path transform="translate(0,0)" fill="rgb(22,171,183)" d="M 349.62 150.255 C 352.178 145.861 358.964 133.203 362.462 131.141 L 364.728 132.395 C 366.676 136.963 368.459 140.219 370.854 144.557 C 368.594 148.741 366.404 153.383 363.169 156.808 L 361.867 156.016 L 359.42 159.135 C 353.981 159.801 347.962 167.911 343.565 172.511 L 341.427 174.173 L 340.58 171.899 C 337.17 175.147 336.778 178.087 333.224 178.667 L 330.283 181.866 C 333.604 169.464 342.462 171.806 335.012 157.561 C 340.487 152.165 342.791 150.441 344.663 143.008 C 345.737 144.626 348.492 148.998 349.62 150.255 z"/>
<path transform="translate(0,0)" fill="rgb(33,126,134)" d="M 364.728 132.395 C 366.676 136.963 368.459 140.219 370.854 144.557 C 368.594 148.741 366.404 153.383 363.169 156.808 L 361.867 156.016 L 359.42 159.135 C 353.981 159.801 347.962 167.911 343.565 172.511 C 345.599 162.029 358.367 141.334 364.728 132.395 z"/>
<path transform="translate(0,0)" fill="rgb(12,84,96)" d="M 335.012 157.561 C 340.487 152.165 342.791 150.441 344.663 143.008 C 345.737 144.626 348.492 148.998 349.62 150.255 C 344.358 159.958 338.624 169.113 333.224 178.667 L 330.283 181.866 C 333.604 169.464 342.462 171.806 335.012 157.561 z"/>
<path transform="translate(0,0)" fill="rgb(21,128,155)" d="M 359.42 159.135 L 361.867 156.016 L 363.169 156.808 C 367.542 159.721 374.021 157.516 379.827 159.787 C 376.674 161.556 363.056 161.79 359.42 159.135 z"/>
<path transform="translate(0,0)" fill="rgb(21,128,155)" d="M 337.077 190.025 C 347.385 182.915 347.547 176.731 353 172.938 L 352.327 175.822 C 349.346 181.582 347.798 185.614 342.312 189.259 C 340.592 189.534 338.804 189.857 337.077 190.025 z"/>
<path transform="translate(0,0)" fill="rgb(34,154,156)" d="M 274.194 123.521 C 270.738 117.783 266.583 112.268 267.593 105.469 C 269.536 102.9 269.113 103.116 272.538 102.315 C 283.035 99.8594 286.635 114.104 292.335 123.142 L 305.743 123.135 C 307.159 123.314 309.798 123.524 311.002 124.004 L 314.179 122.522 L 315.402 123.345 L 323.415 137.153 C 320.008 138.936 319.314 139.197 315.477 139.211 L 303.58 139.055 L 291.138 139.013 L 289.757 142.903 C 287.418 142.003 275.271 141.955 272.1 141.878 L 272.836 138.996 L 266.791 138.824 C 264.124 139.172 252.884 138.924 249.59 138.921 L 258.75 123.17 C 263.77 123.053 269.145 123.339 274.194 123.521 z"/>
<path transform="translate(0,0)" fill="rgb(22,171,183)" d="M 274.194 123.521 C 270.738 117.783 266.583 112.268 267.593 105.469 C 269.536 102.9 269.113 103.116 272.538 102.315 C 283.035 99.8594 286.635 114.104 292.335 123.142 L 305.743 123.135 L 307.615 124.355 L 307.079 125.224 C 295.938 128.95 295.976 124.299 286.983 123.677 C 280.091 123.2 267.788 127.609 260.143 124.927 C 261.04 124.347 271.435 123.888 274.194 123.521 z"/>
<path transform="translate(0,0)" fill="rgb(22,171,183)" d="M 266.791 138.824 L 266.594 137.563 C 268.295 137.214 306.73 137.422 307.452 137.685 L 303.58 139.055 L 291.138 139.013 L 289.757 142.903 C 287.418 142.003 275.271 141.955 272.1 141.878 L 272.836 138.996 L 266.791 138.824 z"/>
<path transform="translate(0,0)" fill="rgb(12,84,96)" d="M 272.836 138.996 L 291.138 139.013 L 289.757 142.903 C 287.418 142.003 275.271 141.955 272.1 141.878 L 272.836 138.996 z"/>
<path transform="translate(0,0)" fill="rgb(12,84,96)" d="M 314.179 122.522 L 315.402 123.345 L 323.415 137.153 C 320.008 138.936 319.314 139.197 315.477 139.211 L 318.032 137.556 C 316.88 133.539 313.232 127.818 311.002 124.004 L 314.179 122.522 z"/>
<path transform="translate(0,0)" fill="rgb(22,171,183)" d="M 328.543 114.9 C 330.582 111.417 334.458 103.884 337.467 101.904 C 342.784 100.724 347.427 103.485 349.428 108.462 C 349.205 112.851 340.488 126.209 337.74 130.771 L 344.663 143.008 C 342.791 150.441 340.487 152.165 335.012 157.561 L 332.688 152.917 C 329.248 147.646 326.468 142.632 323.415 137.153 L 315.402 123.345 L 314.179 122.522 C 310.514 115.393 306.849 109.03 302.826 102.117 L 320.733 102.041 L 328.543 114.9 z"/>
<path transform="translate(0,0)" fill="rgb(54,193,201)" d="M 315.402 123.345 L 318.423 121.829 C 322.921 124.107 333.026 148.309 332.688 152.917 C 329.248 147.646 326.468 142.632 323.415 137.153 L 315.402 123.345 z"/>
<path transform="translate(0,0)" fill="url(#Gradient16)" d="M 993.163 198.051 C 1049.8 196.117 1110.02 199.212 1166.97 197.675 C 1167.06 214.368 1166.84 232.154 1167.27 248.752 C 1164.49 250.193 1057.51 250.162 1046.41 249.634 C 1046.67 257.717 1047.3 314.324 1046.15 319.526 C 1053.71 319.451 1079.99 318.835 1086.03 319.887 C 1095.3 320.197 1145.8 319.476 1150.35 321.048 C 1151.29 324.462 1151.23 325.348 1151.12 328.92 C 1153.67 338.595 1151.56 358.574 1152.99 369.992 C 1117.92 370.076 1081.69 369.591 1046.77 370.153 C 1046.67 395.757 1046.71 421.362 1046.89 446.966 L 1060.55 447.145 C 1095.86 446.733 1131.56 447.538 1166.72 446.935 C 1168.08 449.984 1167.25 453.016 1166.73 456.326 C 1167.49 460.123 1167.05 493.549 1167.03 499.869 C 1109.01 499.03 1049.15 499.917 990.925 499.761 L 991.058 303.798 L 990.977 236.667 C 990.963 225.5 990.501 210.55 991.232 199.622 L 993.163 198.051 z"/>
<path transform="translate(0,0)" fill="url(#Gradient15)" d="M 993.163 198.051 C 1049.8 196.117 1110.02 199.212 1166.97 197.675 C 1167.06 214.368 1166.84 232.154 1167.27 248.752 C 1164.04 247.794 1160.8 246.899 1157.54 246.068 C 1156.67 243.901 1155.88 216.964 1155.57 212.219 C 1107.77 210.746 1051.39 212.035 1003.15 211.957 C 1003.31 217.133 1003.18 222.455 1003.12 227.646 C 1002.15 231.374 1002.51 232.495 999.941 234.861 C 996.602 234.547 997.787 235.056 995.256 232.713 C 993.701 234.316 993.828 262.273 993.372 267.504 C 993.446 246.6 994.384 218.3 993.163 198.051 z"/>
<path transform="translate(0,0)" fill="url(#Gradient14)" d="M 993.372 267.504 C 993.828 262.273 993.701 234.316 995.256 232.713 C 997.787 235.056 996.602 234.547 999.941 234.861 C 1002.51 232.495 1002.15 231.374 1003.12 227.646 C 1004.03 287.907 1003.69 350.226 1003.44 410.503 C 1003.33 427.469 1003.33 444.436 1003.44 461.403 C 1003.49 466.957 1004.41 489.664 1002.37 493.444 C 999.574 495.849 997.421 496.874 993.694 495.99 C 992.274 477.613 993.878 450.824 993.518 431.393 C 992.521 377.487 994.765 321.24 993.372 267.504 z"/>
<path transform="translate(0,0)" fill="rgb(21,128,155)" d="M 1060.55 447.145 C 1095.86 446.733 1131.56 447.538 1166.72 446.935 C 1165.04 452.039 1165.04 457.314 1163.21 460.006 C 1160.52 460.519 1159.44 460.252 1156.76 459.862 C 1144.39 460.112 1048.69 460.966 1043.77 458.067 C 1044.34 454.405 1044.28 452.616 1045.99 449.328 C 1048.47 447.62 1055.9 447.891 1060.55 447.145 z"/>
<path transform="translate(0,0)" fill="rgb(16,152,176)" d="M 1086.03 319.887 C 1095.3 320.197 1145.8 319.476 1150.35 321.048 C 1151.29 324.462 1151.23 325.348 1151.12 328.92 L 1150.84 333.773 C 1148.22 333.196 1144.77 333.101 1142.02 332.937 C 1111.22 332.924 1077.07 333.494 1046.46 331.998 C 1045.2 327.962 1044.72 326.232 1047.14 322.749 C 1056.27 317.634 1073.35 321.501 1086.03 319.887 z"/>
<path transform="translate(0,0)" fill="rgb(21,128,155)" d="M 1046.46 331.998 C 1043.16 332.058 1042.06 332.204 1039.02 331.044 C 1035.39 325.091 1035.24 251.131 1040.66 245.071 L 1042.92 245.471 C 1045.9 249.153 1044.33 308.613 1046.15 319.526 C 1053.71 319.451 1079.99 318.835 1086.03 319.887 C 1073.35 321.501 1056.27 317.634 1047.14 322.749 C 1044.72 326.232 1045.2 327.962 1046.46 331.998 z"/>
<path transform="translate(0,0)" fill="rgb(19,102,125)" d="M 1166.72 446.935 C 1168.08 449.984 1167.25 453.016 1166.73 456.326 C 1162.28 462.724 1169.72 494.344 1161.77 497.444 C 1154.42 495.14 1157.03 467.331 1156.76 459.862 C 1159.44 460.252 1160.52 460.519 1163.21 460.006 C 1165.04 457.314 1165.04 452.039 1166.72 446.935 z"/>
<path transform="translate(0,0)" fill="rgb(19,102,125)" d="M 1142.02 332.937 C 1144.77 333.101 1148.22 333.196 1150.84 333.773 C 1150.89 341.229 1152.05 361.247 1148.34 366.674 L 1146.9 366.742 C 1142.05 360.379 1142.26 341.121 1142.02 332.937 z"/>
<path transform="translate(0,0)" fill="url(#Gradient13)" d="M 1196.36 204.113 C 1194.63 202.019 1194.16 201.598 1193.44 198.932 C 1195.88 196.729 1251.11 197.915 1259.72 197.977 C 1267.22 212.757 1274.52 225.862 1282.82 240.182 C 1286.01 245.682 1295.55 262.454 1297.6 267.782 C 1303.39 275.451 1310.51 290.052 1316.07 298.929 C 1318.81 294.794 1330.64 272.978 1332.36 271.826 C 1338 259.723 1346.01 247.473 1352.66 235.814 C 1359.88 223.168 1366.98 210.44 1374.27 197.844 L 1439.24 197.858 C 1437.49 200.069 1435.85 202.543 1434.24 204.873 C 1422.41 226.412 1398.95 266.178 1385.52 285.893 C 1374.52 305.77 1360.43 327.605 1348.45 347.116 C 1355.68 361.338 1369.8 379.123 1375.75 392.084 L 1419.99 463.231 C 1423.36 468.657 1437.29 490.455 1438.98 495.284 C 1436.83 496.687 1437.15 496.231 1434.15 496.237 L 1429.21 496.273 C 1423.29 498.021 1387.14 496.945 1377.91 497.162 C 1363.42 472.038 1349.18 446.775 1335.18 421.376 C 1329.4 410.772 1319.8 390.907 1313.32 381.68 C 1296.56 407.349 1282.09 435.989 1266.58 462.487 C 1260.57 472.745 1253.42 486.369 1246.83 496.074 C 1229.72 498.151 1209.12 496.029 1191.64 497.305 L 1189.76 496.026 C 1187.79 495.663 1188.46 496.069 1187.24 494.525 C 1187.55 491.105 1272.52 354.437 1278.91 347.695 C 1279.73 343.975 1263.8 319.005 1260.7 313.708 L 1219.67 243.83 C 1212.82 232.311 1201.97 215.651 1196.36 204.113 z"/>
<path transform="translate(0,0)" fill="rgb(16,152,176)" d="M 1439.24 197.858 C 1437.49 200.069 1435.85 202.543 1434.24 204.873 C 1426.79 208.659 1429.41 215.247 1418.75 215.542 C 1418.51 214.507 1417.1 213.447 1416.2 212.556 C 1407.73 211.464 1391.38 211.919 1382.25 211.935 C 1367.46 236.415 1353.84 258.969 1339.86 283.983 C 1336.12 290.729 1320.1 321.392 1309.6 311.993 C 1317.29 296.692 1300.11 280.222 1297.6 267.782 C 1303.39 275.451 1310.51 290.052 1316.07 298.929 C 1318.81 294.794 1330.64 272.978 1332.36 271.826 C 1338 259.723 1346.01 247.473 1352.66 235.814 C 1359.88 223.168 1366.98 210.44 1374.27 197.844 L 1439.24 197.858 z"/>
<path transform="translate(0,0)" fill="rgb(19,102,125)" d="M 1297.6 267.782 C 1303.39 275.451 1310.51 290.052 1316.07 298.929 C 1318.81 294.794 1330.64 272.978 1332.36 271.826 C 1333.21 278.312 1322.76 294.973 1319.32 301.017 C 1321.26 301.448 1322.03 300.638 1325.43 301.602 C 1329.83 299.492 1332.29 289.901 1339.86 283.983 C 1336.12 290.729 1320.1 321.392 1309.6 311.993 C 1317.29 296.692 1300.11 280.222 1297.6 267.782 z"/>
<path transform="translate(0,0)" fill="url(#Gradient12)" d="M 1196.36 204.113 C 1194.63 202.019 1194.16 201.598 1193.44 198.932 C 1195.88 196.729 1251.11 197.915 1259.72 197.977 C 1267.22 212.757 1274.52 225.862 1282.82 240.182 C 1286.01 245.682 1295.55 262.454 1297.6 267.782 C 1300.11 280.222 1317.29 296.692 1309.6 311.993 C 1304.75 307.222 1292.84 284.318 1288.6 276.733 C 1276.62 255.026 1264.42 233.445 1251.99 211.992 C 1238.38 211.958 1224.77 212.028 1211.16 212.202 L 1209.13 212.55 C 1208.41 214.223 1208.36 214.467 1207.2 215.844 C 1204.83 214.742 1200.36 206.961 1196.36 204.113 z"/>
<path transform="translate(0,0)" fill="rgb(21,128,155)" d="M 1278.91 347.695 C 1283.87 348.923 1286.81 349.4 1291.92 350.113 C 1287.23 360.052 1268.59 386.615 1261.46 397.776 C 1244.91 422.8 1230.2 449.036 1212.73 473.427 C 1207.64 480.531 1200.93 489.882 1193.65 494.737 C 1192.98 495.18 1190.88 495.366 1189.76 496.026 C 1187.79 495.663 1188.46 496.069 1187.24 494.525 C 1187.55 491.105 1272.52 354.437 1278.91 347.695 z"/>
<path transform="translate(0,0)" fill="url(#Gradient11)" d="M 1418.75 215.542 C 1429.41 215.247 1426.79 208.659 1434.24 204.873 C 1422.41 226.412 1398.95 266.178 1385.52 285.893 C 1374.52 305.77 1360.43 327.605 1348.45 347.116 C 1355.68 361.338 1369.8 379.123 1375.75 392.084 C 1367.16 383.56 1350.96 353.245 1344.04 347.56 C 1340.42 347.809 1340.15 349.076 1337.03 351.882 C 1334.7 341.967 1371.46 286.241 1379.18 273.826 C 1391.07 254.686 1403.99 231.356 1416.2 212.556 C 1417.1 213.447 1418.51 214.507 1418.75 215.542 z"/>
<path transform="translate(0,0)" fill="rgb(21,128,155)" d="M 1418.75 215.542 C 1429.41 215.247 1426.79 208.659 1434.24 204.873 C 1422.41 226.412 1398.95 266.178 1385.52 285.893 C 1385.42 281.266 1396.75 260.099 1396.57 258.073 C 1394.28 258.552 1392.34 266.07 1389.6 267.29 C 1390.86 261.657 1414.08 224.917 1418.75 215.542 z"/>
<path transform="translate(0,0)" fill="url(#Gradient10)" d="M 1337.03 351.882 C 1340.15 349.076 1340.42 347.809 1344.04 347.56 C 1350.96 353.245 1367.16 383.56 1375.75 392.084 L 1419.99 463.231 C 1423.36 468.657 1437.29 490.455 1438.98 495.284 C 1436.83 496.687 1437.15 496.231 1434.15 496.237 L 1429.21 496.273 C 1417.57 486.745 1390.03 437.553 1381.12 422.986 L 1337.03 351.882 z"/>
<path transform="translate(0,0)" fill="rgb(19,102,125)" d="M 1196.36 204.113 C 1200.36 206.961 1204.83 214.742 1207.2 215.844 C 1208.36 214.467 1208.41 214.223 1209.13 212.55 L 1211.16 212.202 L 1210.87 213.497 C 1213.5 214.188 1213.88 214.233 1216.62 214.038 C 1217.83 214.819 1292.02 346.217 1291.92 350.113 C 1286.81 349.4 1283.87 348.923 1278.91 347.695 C 1279.73 343.975 1263.8 319.005 1260.7 313.708 L 1219.67 243.83 C 1212.82 232.311 1201.97 215.651 1196.36 204.113 z"/>
<path transform="translate(0,0)" fill="url(#Gradient9)" d="M 680.343 197.653 C 689.841 197.623 737.392 196.776 742.944 198.688 C 745.682 212.034 756.868 243.292 761.49 257.351 C 774.863 298.444 788.468 339.462 802.304 380.402 C 804.182 386.117 819.432 435.745 821.5 437.137 C 824.297 434.48 895.14 218.997 901.533 198.074 C 909.039 198.007 960.765 196.743 963.828 199.204 L 963.427 200.657 C 955.591 225.824 942.705 259.546 933.014 284.648 C 929.493 296.708 921.228 317.222 916.665 329.839 L 882.921 423.425 C 874.45 446.315 862.499 476.459 855.847 499.849 L 786.276 499.734 C 780.316 477.598 767.968 446.051 759.924 423.612 L 717.624 303.7 C 710.537 283.517 701.829 261.113 695.632 240.944 C 690.392 226.565 685.295 212.134 680.343 197.653 z"/>
<path transform="translate(0,0)" fill="url(#Gradient8)" d="M 901.533 198.074 C 909.039 198.007 960.765 196.743 963.828 199.204 L 963.427 200.657 C 955.587 207.052 955.51 221.298 950.095 230.361 C 949.215 226.21 951.117 225.659 948.885 223.413 C 947.264 223.461 945.464 223.137 944.74 224.157 C 941.818 228.27 940.903 239.97 936.585 242.461 C 940.326 232.997 943.77 221.875 946.847 212.093 L 911.94 211.935 C 894.129 247.911 840.442 435.632 826.711 449.279 C 823.354 450.087 817.23 448.189 813.565 447.32 C 810.276 440.972 807.897 433.409 805.685 426.58 C 782.515 355.035 757.23 283.637 734.151 212.095 C 727.024 211.967 705.639 211.298 699.647 212.502 C 693.667 213.444 694 213.134 691.201 218.186 C 687.652 210.601 686.318 207.311 683.859 199.239 C 696.965 199.272 731.368 200.083 742.944 198.688 C 745.682 212.034 756.868 243.292 761.49 257.351 C 774.863 298.444 788.468 339.462 802.304 380.402 C 804.182 386.117 819.432 435.745 821.5 437.137 C 824.297 434.48 895.14 218.997 901.533 198.074 z"/>
<path transform="translate(0,0)" fill="rgb(19,102,125)" d="M 680.343 197.653 C 689.841 197.623 737.392 196.776 742.944 198.688 C 731.368 200.083 696.965 199.272 683.859 199.239 C 686.318 207.311 687.652 210.601 691.201 218.186 C 694 213.134 693.667 213.444 699.647 212.502 C 705.316 227.078 710.243 242.946 715.454 257.814 C 727.405 290.97 738.935 324.275 750.042 357.723 L 774.198 429.747 C 777.17 438.323 795.869 489.976 794.685 495.105 C 792.229 496.223 791.621 496.138 788.967 496.161 C 786.623 493.61 777.798 464.601 775.612 458.379 L 723.825 313.289 L 707.404 267.139 C 703.948 257.525 702.054 249.99 697.109 240.734 L 695.632 240.944 C 690.392 226.565 685.295 212.134 680.343 197.653 z"/>
<path transform="translate(0,0)" fill="rgb(19,102,125)" d="M 936.585 242.461 C 940.903 239.97 941.818 228.27 944.74 224.157 C 945.464 223.137 947.264 223.461 948.885 223.413 C 951.117 225.659 949.215 226.21 950.095 230.361 C 955.51 221.298 955.587 207.052 963.427 200.657 C 955.591 225.824 942.705 259.546 933.014 284.648 C 930.868 286.78 929.088 288.847 927.985 291.703 C 907.211 345.431 889.346 400.27 867.895 453.755 C 864.13 463.141 862.635 474.909 856.983 484.029 C 855.402 486.58 856.658 491.139 853.142 494.523 C 849.01 491.722 850.707 486.003 851.99 481.885 C 869.5 425.68 890.427 370.298 910.294 314.872 C 915.627 300.056 920.885 285.214 926.068 270.344 C 928.593 263.091 933.105 248.753 936.585 242.461 z"/>
<path transform="translate(0,0)" fill="url(#Gradient7)" d="M 1851.13 286.346 C 1848.52 255.436 1864.62 220.78 1892.67 206.204 C 1934.86 184.279 1981.14 190.257 2025.02 201.626 C 2024.65 213.336 2025.39 251.117 2024.09 259.088 L 2023.09 259.025 L 2022.8 258.941 C 2014.46 256.511 2005.97 250.069 1998.02 247.937 C 1975.24 241.832 1943.21 240.133 1921.97 251.068 C 1903.84 260.399 1902.95 277.49 1911.8 293.884 C 1941.47 321.534 2000.5 323.668 2024.18 359.187 C 2051.66 390.292 2046.72 451.232 2015.16 478.258 C 1983.15 505.661 1943.08 504.964 1903.55 502.854 C 1886.79 502.008 1871.08 498.649 1855.35 493.309 C 1855.97 476.26 1855.09 456.822 1856.06 440.43 L 1855.54 437.952 L 1856.93 437.229 C 1892.87 449.324 1928.23 457.069 1966.34 448.665 C 1973.77 443.91 1976.3 445.145 1983.03 435.919 C 1987.15 430.282 1990.37 421.86 1988.85 414.845 C 1982.08 383.537 1929.04 375.353 1903.68 362.462 C 1888.73 354.863 1884.6 351.253 1871.53 341.716 L 1870 341.34 L 1869.76 339.679 C 1869.4 338.096 1865.52 332.448 1864.46 330.628 C 1855.04 314.372 1851.09 305.42 1851.13 286.346 z"/>
<path transform="translate(0,0)" fill="url(#Gradient6)" d="M 1851.13 286.346 C 1848.52 255.436 1864.62 220.78 1892.67 206.204 C 1934.86 184.279 1981.14 190.257 2025.02 201.626 C 2024.65 213.336 2025.39 251.117 2024.09 259.088 L 2023.09 259.025 L 2014.86 250.712 C 2012.49 239.815 2012.85 226.387 2012.7 215.047 C 1978.24 205.491 1930.64 201.968 1898.71 219.947 C 1883.7 228.381 1872.74 242.515 1868.31 259.145 C 1863.74 275.891 1864.22 296.032 1869.71 312.226 C 1870.7 315.141 1873.23 324.445 1871.9 327.035 C 1870.46 322.656 1868.51 312.036 1866.5 309.695 C 1864.84 309.376 1863.4 308.879 1861.86 309.412 C 1858.05 314.736 1866.58 326.281 1869.6 331.068 L 1868.9 331.103 C 1858.09 319.165 1851.38 286.566 1851.13 286.346 z"/>
<path transform="translate(0,0)" fill="rgb(21,128,155)" d="M 2024.18 359.187 C 2024.9 362.232 2027.33 366.548 2028.85 369.453 C 2035.22 381.641 2038.46 390.049 2037.84 403.991 C 2035.98 402.568 2038.1 396.051 2036 392.041 C 2033.32 392.955 2031.82 394.768 2029.13 396.063 C 2030.58 398.922 2030.23 402.078 2030.17 405.303 C 2027.92 402.016 2027.22 383.754 2017.28 371.043 C 1992.81 339.334 1946.91 335.772 1915.03 314.734 C 1907.18 309.552 1892.06 292.723 1899.98 282.978 C 1905.74 282.057 1904.41 289.079 1911.8 293.884 C 1941.47 321.534 2000.5 323.668 2024.18 359.187 z"/>
<path transform="translate(0,0)" fill="rgb(21,128,155)" d="M 1966.34 448.665 C 1973.71 451.215 1984.38 437.805 1989.45 433.436 C 1987.64 438.645 1977.09 445.276 1985.97 449.87 C 1988.84 449.103 1992.99 442.956 1995.53 440.187 L 1995.85 441.331 C 1978.22 471.083 1919.79 463.599 1890.43 459.083 C 1886.15 458.425 1875.58 456.328 1871.63 454.845 C 1864.74 451.509 1863.52 455.793 1858.71 453.762 L 1857.47 448.42 C 1857.38 445.854 1856.63 442.972 1856.06 440.43 L 1855.54 437.952 L 1856.93 437.229 C 1892.87 449.324 1928.23 457.069 1966.34 448.665 z"/>
<path transform="translate(0,0)" fill="rgb(19,102,125)" d="M 1857.47 448.42 L 1858.71 453.762 C 1863.52 455.793 1864.74 451.509 1871.63 454.845 C 1866.22 465.447 1873.81 485.839 1865.45 492.9 C 1862.53 493.457 1860.92 492.271 1858.25 490.894 C 1857 487.593 1857.47 454.396 1857.47 448.42 z"/>
<path transform="translate(0,0)" fill="url(#Gradient5)" d="M 1613.88 206.185 C 1620.58 205.937 1627.82 206.167 1634.56 206.255 C 1639 211.527 1649.97 231.358 1653.52 237.939 C 1656.86 243.628 1661.25 250.664 1664.08 256.481 C 1670.55 255.831 1709.44 255.196 1713.95 256.839 L 1715.65 256.627 L 1716.43 255.515 C 1715.33 251.357 1709.88 243.48 1707.4 237.767 C 1708.01 238.553 1712.87 244.929 1713.23 245.184 L 1716 244.38 C 1724.07 249.177 1741.11 287.179 1747.48 294.14 C 1749.49 298.733 1756.23 312.243 1759.56 315.509 L 1759.31 319.62 C 1758.28 320.211 1757.73 320.688 1756.56 320.607 L 1756.02 322.16 C 1752.7 317.723 1743.48 301.011 1740.19 295.395 C 1717.67 295.326 1687.14 294.417 1664.28 295.942 C 1662.34 296.072 1661.95 297.38 1661.06 298.914 C 1652.78 299.105 1624.72 300.82 1619.06 297.029 C 1614.21 291.779 1570.7 299.075 1564.29 293.318 C 1564.83 288.497 1583.18 257.887 1587.1 256.084 C 1593.62 256.136 1615.45 256.582 1620.55 255.66 C 1620.16 253.577 1617.43 249.15 1616.27 247.078 C 1612.93 243.378 1605.34 228.017 1603.33 223.238 C 1606.31 217.861 1610.55 211.488 1613.88 206.185 z"/>
<path transform="translate(0,0)" fill="rgb(4,53,61)" d="M 1707.4 237.767 C 1708.01 238.553 1712.87 244.929 1713.23 245.184 L 1716 244.38 C 1724.07 249.177 1741.11 287.179 1747.48 294.14 C 1749.49 298.733 1756.23 312.243 1759.56 315.509 L 1759.31 319.62 C 1758.28 320.211 1757.73 320.688 1756.56 320.607 L 1756.02 322.16 C 1752.7 317.723 1743.48 301.011 1740.19 295.395 C 1717.67 295.326 1687.14 294.417 1664.28 295.942 C 1662.34 296.072 1661.95 297.38 1661.06 298.914 C 1652.78 299.105 1624.72 300.82 1619.06 297.029 C 1614.21 291.779 1570.7 299.075 1564.29 293.318 C 1609.29 291.744 1655.25 293.853 1700.36 293.053 C 1706.31 292.947 1713.57 292.721 1719.46 293.026 C 1722.99 292.99 1729.25 292.167 1732.96 291.777 C 1729.23 284.167 1715.24 264.08 1713.95 256.839 L 1715.65 256.627 L 1716.43 255.515 C 1715.33 251.357 1709.88 243.48 1707.4 237.767 z"/>
<path transform="translate(0,0)" fill="rgb(60,224,226)" d="M 1713.23 245.184 L 1716 244.38 C 1724.07 249.177 1741.11 287.179 1747.48 294.14 C 1749.49 298.733 1756.23 312.243 1759.56 315.509 L 1759.31 319.62 C 1758.28 320.211 1757.73 320.688 1756.56 320.607 C 1743.09 295.042 1727.99 270.048 1713.23 245.184 z"/>
<path transform="translate(0,0)" fill="rgb(33,126,134)" d="M 1664.08 256.481 C 1670.55 255.831 1709.44 255.196 1713.95 256.839 C 1715.24 264.08 1729.23 284.167 1732.96 291.777 C 1729.25 292.167 1722.99 292.99 1719.46 293.026 C 1721.32 292.612 1724.83 292.049 1726.22 291.002 C 1719.31 282.936 1713.8 268.3 1707.81 258.08 C 1704.97 256.372 1701.2 256.983 1697.78 257.146 C 1687.37 256.746 1674.15 257.599 1664.08 256.481 z"/>
<path transform="translate(0,0)" fill="rgb(54,193,201)" d="M 1661.41 260.054 C 1658.74 255.341 1651.55 243.5 1651.26 238.882 L 1653.52 237.939 C 1656.86 243.628 1661.25 250.664 1664.08 256.481 C 1674.15 257.599 1687.37 256.746 1697.78 257.146 C 1700.42 258.376 1703.08 258.338 1705.98 258.512 L 1706.12 259.148 C 1699.53 260.29 1668.74 260.215 1661.41 260.054 z"/>
<path transform="translate(0,0)" fill="rgb(54,193,201)" d="M 1620.55 255.66 L 1618.55 257.742 C 1619.7 258.234 1622.09 259.145 1622.97 259.859 C 1611 260.169 1599.03 260.337 1587.06 260.363 L 1586.23 259.52 L 1587.1 256.084 C 1593.62 256.136 1615.45 256.582 1620.55 255.66 z"/>
<path transform="translate(0,0)" fill="rgb(60,224,226)" d="M 1616.27 247.078 L 1618.3 245.662 C 1622.21 247.094 1627.95 255.407 1626.85 259.707 C 1625.12 260.02 1624.65 260.226 1622.97 259.859 C 1622.09 259.145 1619.7 258.234 1618.55 257.742 L 1620.55 255.66 C 1620.16 253.577 1617.43 249.15 1616.27 247.078 z"/>
<path transform="translate(0,0)" fill="rgb(60,224,226)" d="M 1622.83 288.391 C 1632.2 287.703 1642.38 287.94 1651.83 287.738 C 1657.17 287.624 1669.02 286.749 1671.25 292.43 L 1663.05 292.033 C 1656.32 292.053 1614.45 292.744 1611.04 290.703 C 1615 288.676 1618.41 288.731 1622.83 288.391 z"/>
<path transform="translate(0,0)" fill="rgb(19,102,125)" d="M 1830.12 271.263 C 1834.05 276.631 1838.42 284.91 1841.79 290.874 L 1850.67 306.179 C 1846.81 312.854 1834.7 332.993 1832.14 339.376 C 1838.27 339.096 1865.15 338.182 1869.76 339.679 L 1870 341.34 L 1871.53 341.716 C 1874.33 346.696 1877.71 352.358 1880.27 357.388 C 1877.2 363.166 1874.16 369.126 1870.6 374.604 C 1865.01 378.862 1818.63 377.08 1809.11 376.786 C 1803.72 385.938 1797.92 396.209 1792.13 404.995 C 1789.98 409.277 1788.34 411.719 1785.66 415.675 L 1781.3 421.799 L 1777.78 422.924 C 1765.54 422.73 1753.3 422.752 1741.06 422.989 L 1741.13 422.059 C 1742.07 419.834 1744.3 415.844 1745.49 413.546 C 1749.54 406.178 1752.91 399.99 1757.63 392.994 C 1759.05 389.237 1774.67 364.081 1777.77 358.983 C 1776.32 357.037 1774.66 354.178 1773.35 352.043 C 1780.29 340.17 1788.02 327.462 1796.25 316.487 L 1799.4 322.237 C 1809.48 305.153 1819.72 288.161 1830.12 271.263 z"/>
<path transform="translate(0,0)" fill="url(#Gradient4)" d="M 1830.12 271.263 C 1834.05 276.631 1838.42 284.91 1841.79 290.874 L 1837.74 290.521 C 1835.67 287.695 1832.6 281.963 1829.84 281.009 C 1828.34 282.038 1776.19 370.117 1773.42 376.033 C 1767.26 385.632 1761.41 394.584 1755.08 404.038 L 1753.8 403.134 C 1754.22 398.799 1756.73 399.822 1757.63 392.994 C 1759.05 389.237 1774.67 364.081 1777.77 358.983 C 1776.32 357.037 1774.66 354.178 1773.35 352.043 C 1780.29 340.17 1788.02 327.462 1796.25 316.487 L 1799.4 322.237 C 1809.48 305.153 1819.72 288.161 1830.12 271.263 z"/>
<path transform="translate(0,0)" fill="rgb(4,53,61)" d="M 1796.25 316.487 L 1799.4 322.237 C 1797 328.218 1781.95 354.071 1777.77 358.983 C 1776.32 357.037 1774.66 354.178 1773.35 352.043 C 1780.29 340.17 1788.02 327.462 1796.25 316.487 z"/>
<path transform="translate(0,0)" fill="rgb(22,171,183)" d="M 1773.42 376.033 C 1776.19 370.117 1828.34 282.038 1829.84 281.009 C 1832.6 281.963 1835.67 287.695 1837.74 290.521 L 1841.79 290.874 L 1850.67 306.179 C 1846.81 312.854 1834.7 332.993 1832.14 339.376 C 1834.14 339.54 1840.06 339.725 1841.33 340.707 L 1841.33 340.948 L 1839.91 340.752 C 1841.89 343.052 1841.11 342.371 1844.35 343.217 C 1837.94 343.219 1831.04 343.359 1824.68 343.173 C 1831.45 328.677 1851.62 309.22 1839.59 296.147 C 1836.86 293.174 1834.05 286.126 1831.07 284.385 C 1826.47 285.868 1802.71 326.6 1804.12 333.787 C 1806.81 347.426 1790.56 361.342 1780.49 369.542 L 1783.15 366.555 C 1778.33 370.203 1775.81 374.447 1773.42 376.033 z"/>
<path transform="translate(0,0)" fill="rgb(16,152,176)" d="M 1807.81 371.681 C 1816.65 371.766 1865.99 371.493 1870.6 374.604 C 1865.01 378.862 1818.63 377.08 1809.11 376.786 C 1803.72 385.938 1797.92 396.209 1792.13 404.995 L 1790.9 402.842 C 1791.31 397.105 1803.88 377.902 1807.81 371.681 z"/>
<path transform="translate(0,0)" fill="rgb(5,27,52)" d="M 1745.49 413.546 C 1759.48 414.611 1771.58 415.199 1785.66 415.675 L 1781.3 421.799 L 1777.78 422.924 C 1765.54 422.73 1753.3 422.752 1741.06 422.989 L 1741.13 422.059 C 1742.07 419.834 1744.3 415.844 1745.49 413.546 z"/>
<path transform="translate(0,0)" fill="rgb(16,152,176)" d="M 1832.14 339.376 C 1838.27 339.096 1865.15 338.182 1869.76 339.679 L 1870 341.34 L 1868.95 343.15 L 1844.35 343.217 C 1841.11 342.371 1841.89 343.052 1839.91 340.752 L 1841.33 340.948 L 1841.33 340.707 C 1840.06 339.725 1834.14 339.54 1832.14 339.376 z"/>
<path transform="translate(0,0)" fill="rgb(19,102,125)" d="M 1619.06 297.029 C 1624.72 300.82 1652.78 299.105 1661.06 298.914 C 1660.17 300.56 1657.9 305.119 1656.73 306.192 C 1654.75 309.74 1642 333.124 1639.54 334.829 C 1636.2 341.501 1630.53 351.733 1625.94 357.682 L 1628.39 362.39 C 1626.2 370.384 1613.39 392.348 1607.15 398.01 C 1606.83 397.161 1605.17 394.791 1604.57 393.892 C 1603.55 395.579 1601.65 398.947 1600.55 400.369 C 1598.11 405.592 1596.96 407.459 1593.64 412.177 C 1587.98 422.118 1581.26 434.429 1575.2 443.914 C 1570.4 436.468 1567.15 431.171 1563.03 423.291 C 1561.23 421.324 1555.93 411.314 1554.25 408.431 L 1571.83 377.784 C 1561.98 376.927 1545.95 377.281 1535.56 377.098 C 1530.84 369.696 1527.83 363.359 1523.99 355.495 C 1527.3 348.623 1530.34 344.93 1535.26 339.172 C 1549.88 339.047 1580.98 338.135 1594.36 339.78 C 1600.32 327.886 1609.25 313.251 1616.44 302.046 C 1616.63 301.487 1618.7 297.701 1619.06 297.029 z"/>
<path transform="translate(0,0)" fill="rgb(77,207,233)" d="M 1634.25 334.19 C 1637.74 331.394 1638.46 330.117 1640.8 326.455 C 1641.45 332.006 1637.99 330.798 1639.54 334.829 C 1636.2 341.501 1630.53 351.733 1625.94 357.682 L 1628.39 362.39 C 1626.2 370.384 1613.39 392.348 1607.15 398.01 C 1606.83 397.161 1605.17 394.791 1604.57 393.892 C 1603.55 395.579 1601.65 398.947 1600.55 400.369 C 1597.68 401.069 1598.21 401.437 1595.95 404.408 C 1594.21 403.053 1594.73 403.78 1594.03 401.604 C 1598.12 395.581 1604.91 382.539 1608.91 375.542 C 1616.91 361.49 1625.36 347.699 1634.25 334.19 z"/>
<path transform="translate(0,0)" fill="rgb(22,51,71)" d="M 1604.57 393.892 C 1604.93 389.823 1622.81 361.602 1625.94 357.682 L 1628.39 362.39 C 1626.2 370.384 1613.39 392.348 1607.15 398.01 C 1606.83 397.161 1605.17 394.791 1604.57 393.892 z"/>
<path transform="translate(0,0)" fill="rgb(21,128,155)" d="M 1535.26 339.172 C 1549.88 339.047 1580.98 338.135 1594.36 339.78 C 1586.22 340.678 1572.49 340.317 1563.86 340.311 C 1554.82 340.066 1544.93 340.368 1536 341.783 C 1531.71 346.017 1526.77 351.023 1526.51 357.158 L 1527.03 358.417 C 1528.99 354.777 1527.63 354.014 1531.44 349.517 C 1531.61 352.316 1529.63 355.285 1528.27 357.851 C 1531.11 363.383 1533.07 367.035 1536.49 372.204 C 1550.96 372.171 1565.43 371.994 1579.9 371.673 C 1576.25 379.084 1571.25 386.717 1566.48 393.476 C 1556.93 406.983 1558.64 410.636 1566.81 422.977 L 1563.03 423.291 C 1561.23 421.324 1555.93 411.314 1554.25 408.431 L 1571.83 377.784 C 1561.98 376.927 1545.95 377.281 1535.56 377.098 C 1530.84 369.696 1527.83 363.359 1523.99 355.495 C 1527.3 348.623 1530.34 344.93 1535.26 339.172 z"/>
<path transform="translate(0,0)" fill="rgb(54,108,146)" d="M 1587.68 412.682 C 1589.36 413.05 1590.19 412.4 1591.77 411.626 L 1593.64 412.177 C 1587.98 422.118 1581.26 434.429 1575.2 443.914 C 1570.4 436.468 1567.15 431.171 1563.03 423.291 L 1566.81 422.977 L 1574.53 435.467 C 1578.56 428.795 1582.92 418.431 1587.68 412.682 z"/>
<path transform="translate(0,0)" fill="rgb(54,193,201)" d="M 1616.44 302.046 C 1617.46 311.298 1602.24 333.447 1596.85 341.972 C 1595.81 343.618 1589.7 343.158 1587.82 343.053 L 1587.38 341.701 C 1583.54 340.197 1570.75 341.537 1563.86 340.311 C 1572.49 340.317 1586.22 340.678 1594.36 339.78 C 1600.32 327.886 1609.25 313.251 1616.44 302.046 z"/>
<path transform="translate(0,0)" fill="rgb(22,171,183)" d="M 1634.25 334.19 C 1634.39 333.732 1634.56 333.28 1634.74 332.835 C 1636.43 328.656 1648.75 307.069 1653.46 305.292 C 1654.75 304.803 1655.33 305.495 1656.73 306.192 C 1654.75 309.74 1642 333.124 1639.54 334.829 C 1637.99 330.798 1641.45 332.006 1640.8 326.455 C 1638.46 330.117 1637.74 331.394 1634.25 334.19 z"/>
<path transform="translate(0,0)" fill="rgb(16,152,176)" d="M 1536 341.783 C 1544.93 340.368 1554.82 340.066 1563.86 340.311 C 1570.75 341.537 1583.54 340.197 1587.38 341.701 L 1587.82 343.053 C 1577.71 343.868 1539.28 339.628 1533.88 346.151 C 1533.01 347.206 1532.17 348.357 1531.44 349.517 C 1527.63 354.014 1528.99 354.777 1527.03 358.417 L 1526.51 357.158 C 1526.77 351.023 1531.71 346.017 1536 341.783 z"/>
<path transform="translate(0,0)" fill="rgb(16,152,176)" d="M 1594.03 401.604 C 1594.73 403.78 1594.21 403.053 1595.95 404.408 C 1598.21 401.437 1597.68 401.069 1600.55 400.369 C 1598.11 405.592 1596.96 407.459 1593.64 412.177 L 1591.77 411.626 C 1590.19 412.4 1589.36 413.05 1587.68 412.682 C 1589.88 408.288 1591.34 405.712 1594.03 401.604 z"/>
<path transform="translate(0,0)" fill="url(#Gradient3)" d="M 1628.39 362.39 C 1630.63 365.78 1633.13 369.212 1634.6 372.978 C 1637.5 377.499 1649.09 396.067 1650.58 400.095 C 1655.26 407.751 1659.73 415.07 1664.07 422.928 L 1670.84 422.895 C 1675.53 430.903 1687.29 450.174 1690.37 457.899 L 1685.23 459.072 L 1689.18 466.144 C 1696.57 477.433 1706.9 496.595 1713.98 508.785 C 1700.6 509.177 1686.23 508.991 1672.78 509.063 L 1653.64 476.799 C 1648.48 486.838 1640.94 498.936 1635.11 508.825 C 1628.35 509.01 1621.07 508.927 1614.27 508.971 C 1610.53 503.257 1607.1 497.095 1603.69 491.162 C 1612.75 474.653 1622.59 457.902 1631.97 441.522 C 1625.85 432.13 1614.01 411.308 1609.37 401.431 L 1607.15 398.01 C 1613.39 392.348 1626.2 370.384 1628.39 362.39 z"/>
<path transform="translate(0,0)" fill="rgb(54,108,146)" d="M 1609.37 401.431 C 1616.73 403.4 1631.96 432.786 1636.81 441.151 C 1627.17 457.865 1617.47 473.535 1607.47 489.98 C 1610.17 496.458 1611.99 499.48 1615.72 505.492 L 1632.92 505.27 C 1638.7 494.263 1646.84 479.179 1653.66 468.966 C 1661.06 480.553 1667.95 492.971 1674.79 504.936 L 1706.93 505.176 C 1703.79 499.092 1687.87 474.946 1687.37 471.872 C 1688.09 470.573 1688.76 467.694 1689.18 466.144 C 1696.57 477.433 1706.9 496.595 1713.98 508.785 C 1700.6 509.177 1686.23 508.991 1672.78 509.063 L 1653.64 476.799 C 1648.48 486.838 1640.94 498.936 1635.11 508.825 C 1628.35 509.01 1621.07 508.927 1614.27 508.971 C 1610.53 503.257 1607.1 497.095 1603.69 491.162 C 1612.75 474.653 1622.59 457.902 1631.97 441.522 C 1625.85 432.13 1614.01 411.308 1609.37 401.431 z"/>
<path transform="translate(0,0)" fill="rgb(71,166,212)" d="M 1650.58 400.095 C 1655.26 407.751 1659.73 415.07 1664.07 422.928 L 1670.84 422.895 C 1675.53 430.903 1687.29 450.174 1690.37 457.899 L 1685.23 459.072 L 1689.18 466.144 C 1688.76 467.694 1688.09 470.573 1687.37 471.872 L 1680.87 461.616 C 1675.02 449.386 1658.24 423.097 1650.37 409.052 L 1650.58 400.095 z"/>
<path transform="translate(0,0)" fill="rgb(5,27,52)" d="M 1664.07 422.928 L 1670.84 422.895 C 1675.53 430.903 1687.29 450.174 1690.37 457.899 L 1685.23 459.072 C 1680.93 454.693 1666.48 428.796 1664.07 422.928 z"/>
<path transform="translate(0,0)" fill="rgb(4,77,104)" d="M 1644.48 399.949 L 1650.37 409.052 C 1658.24 423.097 1675.02 449.386 1680.87 461.616 C 1678.53 460.489 1675.43 458.359 1672.69 455.974 C 1662.12 446.76 1651.09 434.576 1647.9 420.489 C 1647.9 420.487 1650.23 413.519 1650.23 413.518 C 1647.85 408.71 1644.85 405.463 1644.48 399.949 z"/>
<path transform="translate(0,0)" fill="rgb(16,152,176)" d="M 1634.6 372.978 C 1637.5 377.499 1649.09 396.067 1650.58 400.095 L 1650.37 409.052 L 1644.48 399.949 C 1642.04 392.306 1630.45 380.41 1634.6 372.978 z"/>
<path transform="translate(0,0)" fill="url(#Gradient2)" d="M 1781.3 421.799 C 1799.97 422.174 1822.17 421.359 1840.22 422.811 C 1834.18 434.567 1826.31 447.289 1819.52 458.778 C 1804.62 458.2 1798.21 457.623 1783.41 460.26 C 1788.58 470.678 1795.64 481.239 1800.41 491.039 L 1790.4 508.86 L 1769.08 509.013 C 1759.02 492.51 1749.35 475.776 1740.07 458.823 C 1726.08 459.476 1714.16 458.022 1700.43 457.884 C 1698.08 458.276 1692.96 457.976 1690.37 457.899 C 1687.29 450.174 1675.53 430.903 1670.84 422.895 C 1685.05 422.02 1699.3 421.788 1713.53 422.199 C 1722.71 422.171 1731.96 422.2 1741.13 422.059 L 1741.06 422.989 C 1753.3 422.752 1765.54 422.73 1777.78 422.924 L 1781.3 421.799 z"/>
<path transform="translate(0,0)" fill="rgb(54,108,146)" d="M 1781.3 421.799 C 1799.97 422.174 1822.17 421.359 1840.22 422.811 C 1834.18 434.567 1826.31 447.289 1819.52 458.778 C 1804.62 458.2 1798.21 457.623 1783.41 460.26 C 1788.58 470.678 1795.64 481.239 1800.41 491.039 L 1790.4 508.86 L 1769.08 509.013 C 1759.02 492.51 1749.35 475.776 1740.07 458.823 C 1726.08 459.476 1714.16 458.022 1700.43 457.884 C 1710.15 455.383 1732.17 454.701 1742.16 454.7 C 1751.75 467.916 1760.51 490.004 1770.52 503.43 C 1772.75 506.422 1783.78 505.537 1788.21 505.445 C 1791.07 500.832 1793.85 496.175 1796.55 491.473 C 1792.95 483.227 1780.68 463.821 1775.47 454.772 L 1816.87 454.715 C 1822.53 445.488 1828.87 436.06 1833.92 426.569 C 1821.99 425.901 1807.21 427.544 1794.12 427.035 C 1795.95 425.954 1796.32 425.573 1797.83 424.071 C 1794.87 422.513 1781.94 423.018 1777.78 422.924 L 1781.3 421.799 z"/>
<path transform="translate(0,0)" fill="rgb(4,77,104)" d="M 1741.06 422.989 C 1753.3 422.752 1765.54 422.73 1777.78 422.924 C 1781.94 423.018 1794.87 422.513 1797.83 424.071 C 1796.32 425.573 1795.95 425.954 1794.12 427.035 L 1792.95 426.988 C 1782.49 431.803 1774.45 437.485 1763.75 437.558 C 1746.98 437.673 1726.96 442.387 1715.32 428.113 C 1714.83 427.518 1710.54 429.541 1707.46 427.077 C 1710.67 426.983 1720.12 427.119 1722.45 426.829 L 1731.58 425.461 L 1732.05 424.826 C 1728.45 424.639 1724.86 424.382 1721.27 424.055 C 1728.36 423.289 1733.98 423.135 1741.06 422.989 z"/>
<path transform="translate(0,0)" fill="rgb(77,207,233)" d="M 1741.06 422.989 C 1753.3 422.752 1765.54 422.73 1777.78 422.924 C 1781.94 423.018 1794.87 422.513 1797.83 424.071 C 1796.32 425.573 1795.95 425.954 1794.12 427.035 L 1792.95 426.988 C 1774.39 425.739 1743.35 427.29 1722.45 426.829 L 1731.58 425.461 L 1732.05 424.826 C 1728.45 424.639 1724.86 424.382 1721.27 424.055 C 1728.36 423.289 1733.98 423.135 1741.06 422.989 z"/>
<path transform="translate(0,0)" fill="rgb(71,166,212)" d="M 1713.53 422.199 C 1722.71 422.171 1731.96 422.2 1741.13 422.059 L 1741.06 422.989 C 1733.98 423.135 1728.36 423.289 1721.27 424.055 C 1724.86 424.382 1728.45 424.639 1732.05 424.826 L 1731.58 425.461 L 1722.45 426.829 C 1720.12 427.119 1710.67 426.983 1707.46 427.077 C 1698.87 426.788 1691.93 426.394 1683.47 424.882 C 1686.25 422.723 1707.43 423.043 1713.53 422.199 z"/>
<path transform="translate(0,0)" fill="rgb(34,154,156)" d="M 1769.04 206.17 C 1775.62 206.14 1783.35 205.91 1789.84 206.214 C 1794.51 212.263 1796.92 216.932 1800.52 223.574 C 1792.48 239.286 1780.95 258.478 1771.68 273.755 C 1774.55 278.667 1782.92 292.419 1784.62 296.932 C 1787.99 301.86 1791.25 307.313 1793.6 312.815 L 1794.46 314.226 L 1796.25 316.487 C 1788.02 327.462 1780.29 340.17 1773.35 352.043 C 1767.88 343.679 1761.21 331.184 1756.02 322.16 L 1756.56 320.607 C 1757.73 320.688 1758.28 320.211 1759.31 319.62 L 1759.56 315.509 C 1756.23 312.243 1749.49 298.733 1747.48 294.14 C 1741.11 287.179 1724.07 249.177 1716 244.38 L 1713.23 245.184 C 1712.87 244.929 1708.01 238.553 1707.4 237.767 C 1701.45 228.13 1694.07 216.823 1690.42 206.216 C 1704.13 206.031 1717.84 206.037 1731.55 206.235 C 1735.33 211.241 1739.03 218.34 1742.16 223.931 C 1744.6 228.219 1746.76 233.801 1750.46 235.851 C 1752.65 234.608 1753.19 233.366 1754.5 231.219 C 1757.78 224.736 1764.93 212.233 1769.04 206.17 z"/>
<path transform="translate(0,0)" fill="rgb(22,171,183)" d="M 1690.42 206.216 C 1704.13 206.031 1717.84 206.037 1731.55 206.235 C 1735.33 211.241 1739.03 218.34 1742.16 223.931 C 1744.6 228.219 1746.76 233.801 1750.46 235.851 C 1752.65 234.608 1753.19 233.366 1754.5 231.219 C 1756.04 235.011 1754.81 233.534 1754.9 237.002 C 1756.16 234.968 1758.02 232.927 1759.59 231.076 C 1757.73 236.132 1756.66 240.865 1752.4 244.041 C 1744.25 244.515 1743.75 233.588 1737.22 230.982 C 1729.72 233.506 1732.42 246.327 1735.16 251.358 C 1742.99 265.704 1743.41 279.629 1747.48 294.14 C 1741.11 287.179 1724.07 249.177 1716 244.38 L 1713.23 245.184 C 1712.87 244.929 1708.01 238.553 1707.4 237.767 C 1701.45 228.13 1694.07 216.823 1690.42 206.216 z"/>
<path transform="translate(0,0)" fill="rgb(54,193,201)" d="M 1750.19 245.137 C 1747.19 240.374 1740.69 230.837 1740.41 225.644 L 1742.16 223.931 C 1744.6 228.219 1746.76 233.801 1750.46 235.851 C 1752.65 234.608 1753.19 233.366 1754.5 231.219 C 1756.04 235.011 1754.81 233.534 1754.9 237.002 C 1754.22 239.35 1751.61 242.959 1750.19 245.137 z"/>
<path transform="translate(0,0)" fill="url(#Gradient1)" d="M 1769.04 206.17 C 1775.62 206.14 1783.35 205.91 1789.84 206.214 C 1794.51 212.263 1796.92 216.932 1800.52 223.574 C 1792.48 239.286 1780.95 258.478 1771.68 273.755 C 1774.55 278.667 1782.92 292.419 1784.62 296.932 C 1785.3 299.799 1786.63 303.147 1785.86 305.593 C 1780.68 296.742 1772.57 281.937 1766.8 274.066 C 1770.62 266.734 1786.96 239.492 1787.79 233.651 C 1783.4 229.822 1765.12 226.785 1759.59 231.076 C 1758.02 232.927 1756.16 234.968 1754.9 237.002 C 1754.81 233.534 1756.04 235.011 1754.5 231.219 C 1757.78 224.736 1764.93 212.233 1769.04 206.17 z"/>
<path transform="translate(0,0)" fill="rgb(33,126,134)" d="M 1759.56 315.509 L 1759.72 314.151 C 1763.14 319.106 1771.41 335.77 1773.19 337.377 C 1780.72 336.824 1781.08 322.658 1794.46 314.226 L 1796.25 316.487 C 1788.02 327.462 1780.29 340.17 1773.35 352.043 C 1767.88 343.679 1761.21 331.184 1756.02 322.16 L 1756.56 320.607 C 1757.73 320.688 1758.28 320.211 1759.31 319.62 L 1759.56 315.509 z"/>
<path transform="translate(0,0)" fill="rgb(22,171,183)" d="M 1784.62 296.932 C 1787.99 301.86 1791.25 307.313 1793.6 312.815 C 1789.53 314.315 1787.08 308.616 1785.86 305.593 C 1786.63 303.147 1785.3 299.799 1784.62 296.932 z"/>
<path transform="translate(0,0)" fill="rgb(4,77,104)" d="M 1508.86 333.022 C 1510.68 335.528 1510.03 378.212 1510.07 384.875 L 1411.55 384.859 C 1410.6 368.627 1411.17 349.465 1411.49 333.035 C 1440.16 332.446 1472.88 332.663 1501.58 333.142 L 1508.86 333.022 z"/>
<path transform="translate(0,0)" fill="rgb(16,152,176)" d="M 1501.58 333.142 L 1508.86 333.022 C 1507.93 336.268 1507.66 336.99 1508.06 340.302 C 1506.88 347.09 1504.52 345.937 1497.87 346.746 C 1478.18 347.342 1456.95 346.938 1437.14 346.877 C 1426.98 344.989 1420.28 348.768 1416.67 347.042 C 1413.6 343.728 1414.1 339.835 1413.73 335.001 C 1417.49 332.263 1489.66 336.414 1501.58 333.142 z"/>
<path transform="translate(0,0)" fill="rgb(19,102,125)" d="M 1413.73 335.001 C 1414.1 339.835 1413.6 343.728 1416.67 347.042 C 1420.28 348.768 1426.98 344.989 1437.14 346.877 L 1424.74 347.008 C 1424.7 358.224 1424.88 369.306 1423.53 380.45 C 1419.7 381.222 1418.61 381.517 1414.76 381.127 C 1413.48 372.225 1413.33 344.074 1413.73 335.001 z"/>
<path transform="translate(0,0)" fill="rgb(19,102,125)" d="M 1508.06 340.302 C 1509.05 347.81 1510.88 378.085 1504.92 382.358 C 1496.31 381.529 1497.88 352.697 1497.87 346.746 C 1504.52 345.937 1506.88 347.09 1508.06 340.302 z"/>
<path transform="translate(0,0)" fill="rgb(0,0,0)" fill-opacity="0.87451" d="M 1313.32 381.68 C 1319.8 390.907 1329.4 410.772 1335.18 421.376 C 1349.18 446.775 1363.42 472.038 1377.91 497.162 C 1387.14 496.945 1423.29 498.021 1429.21 496.273 L 1434.15 496.237 C 1432.85 496.335 1432.27 496.445 1431.27 497.292 C 1433.86 497.781 1436.45 498.251 1439.05 498.701 L 1438.83 499.676 C 1425.72 501.028 1389.9 500.124 1375.27 499.91 C 1356.44 464.233 1329.31 421.469 1312.72 386.67 C 1307.25 399.569 1289.05 429.395 1281.07 443.155 C 1273.32 456.544 1255.8 488.59 1247.16 499.95 C 1239.87 499.969 1187.93 500.696 1185.6 499.072 C 1188.13 498.079 1188.96 497.728 1191.64 497.305 C 1209.12 496.029 1229.72 498.151 1246.83 496.074 C 1253.42 486.369 1260.57 472.745 1266.58 462.487 C 1282.09 435.989 1296.56 407.349 1313.32 381.68 z"/>
</svg>